<svg xmlns="http://www.w3.org/2000/svg" viewBox="0 0 167.24 301.29"><defs><style>.cls-1{fill:#7eb0bc;}.cls-2{fill:#db093b;}.cls-3{fill:#ff0034;}.cls-4{fill:#4a4a4a;}.cls-5{fill:#a8a8a8;}.cls-6{fill:#a8d0db;}.cls-7{fill:#fcc0a2;}.cls-8{fill:#d37a4f;}.cls-9{fill:#211915;}.cls-10{fill:#fff;}.cls-11{fill:#f4a173;}.cls-12{fill:#e6e6e6;}.cls-13{isolation:isolate;font-size:3.02px;fill:#f1f2f2;font-family:BebasNeue-Regular, Bebas Neue;}</style></defs><g id="Layer_2" data-name="Layer 2"><g id="OBJECTS"><path class="cls-1" d="M47.09,62.26s12.78-16.75,46.18.62Z"/><path class="cls-1" d="M62.11,59.91s42.5-6.7,60,27.35S58.59,79.21,62.11,59.91Z"/><path class="cls-2" d="M47.09,19.2S45.88,1.4,26.65.05,3.54,26.12,8.08,33.36,47.09,19.2,47.09,19.2Z"/><path class="cls-3" d="M.18,34.4c1.71,5.42,15.56,5.87,30.92,1S57.53,22.2,55.81,16.78s-15.57-5.87-30.93-1S-1.54,29,.18,34.4Z"/><polygon class="cls-3" points="59.61 279.18 51.89 286.6 44.06 278.85 50.53 270.08 59.61 279.18"/><path class="cls-4" d="M54.84,285.85a71.27,71.27,0,0,0,4.67,10,5.39,5.39,0,0,1,.91,3.63,2.26,2.26,0,0,1-3.57,1.41l-19-14c-2-1.51-2.25-2.81-.25-4.35s4.38-4.63,6.16-4.8C47.56,277.31,51.19,277.72,54.84,285.85Z"/><polygon class="cls-3" points="135.84 278.65 134.51 289.27 123.55 288.19 123.06 277.3 135.84 278.65"/><path class="cls-4" d="M136.33,286.84a71.39,71.39,0,0,0,9.91,4.79,5.43,5.43,0,0,1,3,2.25,2.25,2.25,0,0,1-1.89,3.34l-23.56,1.06c-2.52.11-3.52-.75-2.93-3.21s.48-6.36,1.76-7.62C125.3,284.79,128.38,282.82,136.33,286.84Z"/><path class="cls-5" d="M142.38,186.77s6.14,66-6.2,94.17H122.09s3.94-65.67-19-84.17c0,0-10,68.31-45.27,84.17L47.2,273s17.69-49.57,11.49-82a9.62,9.62,0,0,1,10.43-11.26Z"/><path class="cls-6" d="M95.83,82.57c15.72,20.93,47.11,67.94,49.05,112,0,0-27.75-12.56-85-8.28,0,0-1.7-57.93-28.42-88.87C14.73,78.09,29.35,64.52,49.7,62.21,67.54,60.19,85,68.21,95.83,82.57Z"/><path class="cls-1" d="M59.86,59.49s-8.28,6.19,19.32,33.17,30.73,104.74,68.37,120.42C147.55,213.08,149.58,83.74,59.86,59.49Z"/><path class="cls-1" d="M28.91,70.75s29.41,3.8,36.29,30.67S83.61,154.67,83.64,174c0,24.54-15.7,30.15-25,35.41,0,0-2.87-75.78-20.37-96.87S17.63,80.7,28.91,70.75Z"/><path class="cls-7" d="M47.77,31.25a8,8,0,0,1,5.3-7.06c5.17-1.84,10.45,21.29-1.37,20.66A16.79,16.79,0,0,1,48.21,61c-.86,1-13.87,17.41-27.72-2.64,0,0,1.61,1.87-4,1.74S8,44.05,10.83,42.43s5.34,4.08,5.34,4.08S6.68,31.91,19,21.8,47.15,18.79,47.77,31.25Z"/><polygon class="cls-8" points="28.87 33.16 30.3 48.92 36.68 46.76 28.87 33.16"/><path class="cls-9" d="M36.46,36.07c.46,1.07,1.21,1.78,1.66,1.58s.46-1.22,0-2.29-1.2-1.77-1.66-1.57S36,35,36.46,36.07Z"/><path class="cls-9" d="M23.3,41.77c.46,1.06,1.21,1.77,1.66,1.57s.45-1.22,0-2.29-1.2-1.77-1.66-1.57S22.84,40.7,23.3,41.77Z"/><path class="cls-8" d="M50.47,31.63s1.78-3.17,3.59-3.5,4.19,8,1.9,10.29-3.24,1.55-3.41.12,1.87-3.27,1.22-4.46S50,34.26,50.47,31.63Z"/><path class="cls-8" d="M15.73,47.44s-2.35-2-3.66-1.5.21,9,2.59,10,2.7-.08,2.28-1.43-2.45-2.08-2.46-3.43S17.05,49.55,15.73,47.44Z"/><path class="cls-10" d="M30,60.64c-4-.89-4.44-6.73-.42-7.76A4.06,4.06,0,0,1,31,52.77c3.58.39,8.59-1.78,10.56-3.14s5.47,4.79-2,9.06C35.88,60.78,32.49,61.19,30,60.64Z"/><path class="cls-9" d="M31,38.44h0A7.55,7.55,0,1,1,37.88,43,7.54,7.54,0,0,1,31,38.44Zm4.31-9a6.58,6.58,0,0,0-3.42,8.63h0a6.55,6.55,0,1,0,3.42-8.63Z"/><path class="cls-9" d="M20.52,48.76a7.53,7.53,0,1,1,5.77-.09,7.54,7.54,0,0,1-5.77.09Zm.17-13a6.56,6.56,0,0,0-3.41,8.62h0a6.54,6.54,0,1,0,6-9.17A6.44,6.44,0,0,0,20.69,35.74Z"/><rect class="cls-9" x="42.11" y="28.77" width="6.34" height="0.97" transform="translate(-4.87 9.48) rotate(-11.35)"/><rect class="cls-9" x="12.44" y="40.38" width="4.88" height="0.97" transform="translate(-23.22 19.89) rotate(-41.15)"/><rect class="cls-9" x="22.67" y="32.12" width="10.65" height="0.97" transform="translate(-10.64 13.79) rotate(-23.38)"/><path class="cls-11" d="M139.36,106.52s3.79-6.17-4.65-9.84l2.75,9.84Z"/><path class="cls-3" d="M45.28,23.82S27,22.77,12.7,34l-1.12-9.7L23.3,17l14.57-1,4.79,1,2.62,2.75Z"/><path class="cls-12" d="M130.91,92.38s19.45-.34,9.3,19.69S130.91,92.38,130.91,92.38Z"/><path class="cls-11" d="M136.57,102.68s-4.28,4.94-6.77,7.85,1.89,11.68,11,5.91S136.57,102.68,136.57,102.68Z"/><text class="cls-13" transform="translate(140.43 90.25) rotate(-147.15)">09197517 3759231 021 21 A</text><path class="cls-3" d="M71.09,159.42v0h0Z"/><path class="cls-3" d="M70.94,158.09h0Z"/><path class="cls-3" d="M58.51,139.74l-1,.47-.8.66-.13-.14.48-.51-.82-.17c-.24.59-.67.95-1.28.79-.86-.23-1.48.26-2.19.53a5.17,5.17,0,0,1-1.51.23c-.38,0-.15,1.15-1,.52l.32-.38-.67-.22C51.43,140,56.54,139,58.51,139.74Z"/><path class="cls-3" d="M47.78,143.39c.65-.77.65-.77,1.3-.73l.54-.85c.31,1.43-.9,1.79-1.62,2.76,0-.57.74-1.1-.22-1.2Z"/><path class="cls-3" d="M47.78,143.37c-.08.37-.45.62-.15,1.14s-.61,1.23-1.41,1l1.56-2.13Z"/><path class="cls-3" d="M51.22,148.5l-1.62.58c.06-.18.07-.35.16-.43a14.76,14.76,0,0,1,2.62-2.34,11.15,11.15,0,0,1,2.95-.8,4.31,4.31,0,0,0,1.34-.31c.75-.49,1.26.1,1.88.23a.85.85,0,0,1,.5.39l-.71,0c-1.38,0-2.73-.11-4,.87a5.17,5.17,0,0,1-2.27.68C51.33,147.49,51.11,147.85,51.22,148.5Z"/><g id="Layer_2-2" data-name="Layer 2"><g id="Layer_1-2" data-name="Layer 1-2"><path class="cls-10" d="M117.94,133.29c0,.19-.32.88-.18,1,.36.27,1.07.51,1.36.32a2.25,2.25,0,0,0,.69-.81ZM88.13,58.92,27,167.67a6.58,6.58,0,0,0,2.51,9L96.3,214.18a6.57,6.57,0,0,0,9-2.52l61.14-108.75a6.58,6.58,0,0,0-2.51-9L97.09,56.41A6.58,6.58,0,0,0,88.13,58.92Zm10,37.75.14.34-1,.56-.94.85-.17-.16.55-.68-1-.1a1.29,1.29,0,0,1-1.51,1c-1-.21-1.66.38-2.46.7-.63.27-1.28.42-1.93.63l-1,.71,0-.68-.87-.24A16.39,16.39,0,0,1,98.11,96.67ZM84,104.75l1.71-2.53,0-.06h0c.33-.66.75-1.19,1.49-1l.67-1.19A3.13,3.13,0,0,1,86,103.25c-.19-.34.93-1.09-.31-1.1l0,.07c-.11.39-.49.72-.08,1.26.14.21-.28.93-.57,1.32-.15.18-.58.15-.89.21ZM75.14,138c1.22-1.13,1.87-.35,2.14,1.24l-1.23-.68C75.61,139,75.28,138.73,75.14,138Zm.42,1.49.45-.31c.45.69.9,1.38,1.36,2.06l-.33.24c-.47-.65-.94-1.33-1.44-2Zm4.06,1.83c.52.6,1,1.19,1.57,1.78l-.32.3-1.64-1.71Zm-.47,3.07c-.52-.68-.94-1.42-1.43-2.17l.32-.57,1,.21a1.33,1.33,0,0,0,1,1.6h.06a8.19,8.19,0,0,0,1.55.24c.9.06,1.56.31,1.41,1.57a13.84,13.84,0,0,1-2.65.11c-.46-.07-.91-.62-1.22-1Zm3.49,2.3c-.51-.35-.38-.75.22-.95A1.73,1.73,0,0,0,85,146.88a1.77,1.77,0,0,0,.6-.33l.29.92-.69.05c.25.14.46.3.7.45l.66.38c-.28.07-.64.27-.83.16a29.88,29.88,0,0,1-3.09-1.83Zm-4,32.09c1.38-2,1.93-3.8,2.07-6.95l1.26,0a27,27,0,0,1-.49,3.9A13,13,0,0,1,77.72,182c-3.68,3.36-8.37,3.26-12.65.27s-5.4-7.9-3-12.62a15.51,15.51,0,0,1,4.83-5.77l.71,1a13.3,13.3,0,0,0-5,6.93,7.17,7.17,0,0,0,4.32,8.62l9.09-15.24.48.27a33.8,33.8,0,0,1-1.88,3.88c-.61,1.3-1.36,2.62-2.05,3.93s-1.4,2.67-2.12,4-1.44,2.57-2.15,3.83C71.48,183.25,76.22,182.14,78.59,178.79ZM97.5,154.58a4.44,4.44,0,0,1-1.19.75c-5.2,1.07-10.42,2.1-15.61,3.17a8.39,8.39,0,0,1-1,.06c.27-.7.51-1.25.7-1.82a3.31,3.31,0,0,0-.38-3.45,3,3,0,0,0-5,.2,24.13,24.13,0,0,0-1.45,2.57l12.78,7.19-1,1.79-13.81-7.76c1.25-2,2.37-4,3.72-5.81a3.18,3.18,0,0,1,3.86-1.16A3.71,3.71,0,0,1,81.78,154a23.1,23.1,0,0,1-.33,2.76l15.82-2.48Zm-7.72-6.9c.18.44.38.85.54,1.28l-.9.08-.08.26-.76-.66,1.17-1h0ZM119.24,127l.53,2.72,2.11.5-.1.83a6.66,6.66,0,0,1,.67-.08l-.31.93a1.59,1.59,0,0,1,.7,0c.11.06.15.52.07.57a2.78,2.78,0,0,1-3.08-.84s.08-.2.12-.32l-2.88-.2c.61.5,1.07,1.18,1.49,1.15.94,0,1,.56,1.35,1.39a6.81,6.81,0,0,1,.49-.77c.93.24-.32,1.26.27,1.74-1.11-.25-1.16.52-1.2,1.31l-.25-.14v-.63l-.21-.12c-.12.21-.33.44-.29.62.12.5,1.35.83,1.93.57a1.4,1.4,0,0,0,1.83.77,1.29,1.29,0,0,0,.39-.23,15.08,15.08,0,0,1,1.32-1.1,2.08,2.08,0,0,0,.21.21l-.23,1.24-1.12,0v.24a2.19,2.19,0,0,1,.81,0c.22.09.49.41.45.57a1,1,0,0,1-.56.6,8.86,8.86,0,0,1-1.15,0c-.15,0-.3.18-.46.27l.09.37-1.39-.56c-.21.75.77.61.88,1.13l-2.26.74-.22-.19-2.41,1.29-.14-.87a8,8,0,0,1-1.31,1.23,9.44,9.44,0,0,1-1.73.56c-.08-.78-.52-1-1.15-.65a20.13,20.13,0,0,0-1.66,1.26c-.31.23-.64.46-1,.71l-.3-.7c-.38.47-.77,1-1.23,1.5-.3.31-.62.83-1.2.34a.53.53,0,0,0-.39.19c-.73,1.29-2.16,1.69-3.31,2.4-.36.21-1.07-.1-1.61-.22s-1.07-.32-.83.67c.06.28-.47.69-.73,1-.08-.07-.15-.15-.23-.23l.78-.48L99.15,148l.11-.72-1.73,1.3.1.2,1,0,.07.17a8.25,8.25,0,0,1-1.17.44c-.59.12-1.21.09-1.78.25a4.79,4.79,0,0,1-2.36-.28c-1.13-.22-1.54-1-2.15-1.65a2.83,2.83,0,0,1-.3-.79c-.1-.06-.38,0-.52-.19-1.52-1.54-1.51-1.55-.45-3.47l.14-.25c1.33-2.45,1.33-2.45,4.13-2.09,1.17.16,2.37.26,3.5.48.85.18,1.38,0,1.68-.82a8.84,8.84,0,0,1,.56-1l-7.58-.85,3.3-6.53-.34-.2a8.35,8.35,0,0,0-.66.81c-1,1.71-2.11,3.41-3.11,5.14a1,1,0,0,1-1.19.59c-2.24-.3-4.48-.56-6.73-.84A1.69,1.69,0,0,1,82,136a2.9,2.9,0,0,0-.38-.84l.8-.3c-2.05-.53-.3-2.32-1.08-3a3,3,0,0,0,.59-1c0-.47-.21-1-.82-.78a1.73,1.73,0,0,0-.65,2,1.41,1.41,0,0,1-.28,2c1.67.31.27,1.76.93,2.5l-.48-.27c3.77,3.22,6.18,7.49,9.12,11.34h0a5.46,5.46,0,0,0-.89.13c-.4.08-.78.18-1.24.3l-.11.75-.91-.48h0l0,0h0c0-.63,0-1.26,0-1.87a17.12,17.12,0,0,0-.31-1.7,6.44,6.44,0,0,1-2.65-1c-1.15-.73-1.47-2.27-3-2.6a1.38,1.38,0,0,1-.88-1.75,1.77,1.77,0,0,1,.15-.31L78.69,139l0-1.2c0-.19,0-.46-.05-.55-.76-.68-.34-1.54-.43-2.32a6.17,6.17,0,0,0-.59-1.49l.72-.31.23-2-.66.21a28.94,28.94,0,0,1,1.5-3.31,8.78,8.78,0,0,1,3.06-3.2,3.12,3.12,0,0,0,.77-.58,5.86,5.86,0,0,1,2.54-1.77,12.23,12.23,0,0,0,1.94-1.23c-1.12,1-.09,1.54.31,2.14l1.47-.38c-.39-.77-.77-1.41-1-2.1-.51-1.24-.93-2.53-1.44-3.77s-1-2.12-1.44-3.22c-.12-.31.06-.74,0-1.12a7.69,7.69,0,0,0-.2-1.43A6.81,6.81,0,0,1,85,109.8l.9,1.19-.39-2.15-.46.56-.16-.06a3.36,3.36,0,0,1,.16-1c.23-.41.57-.77.81-1.18a3,3,0,0,0,.63-2.08c-.19-1.19.63-1.88,1.9-1.69,0-.15.08-.34,0-.43-.53-.67,0-1.12.43-1.36a15.28,15.28,0,0,1,2.34-.86l-.4.86a.86.86,0,0,0,.14.13,11.42,11.42,0,0,1,1-.91c.73-.52,1.52-1,2.23-1.49s1.18-.48,1.39.12a6,6,0,0,1,1.11-.28c.78-.05,1.57,0,2.55-.06l-.33-1.45,1,.37,1.44-1c.66,1.22.82,1.28,1.71.52a4.85,4.85,0,0,1,.08,1.18,6.73,6.73,0,0,1-1.72.29c-.18,0-.35-.33-.55-.37a3.11,3.11,0,0,0-1,0,.54.54,0,0,0-.07.41c.23.29.5.73.79.76.59.06,1.22-.28,1.65.55.09.18,1.07-.11,1.64-.33l-1-.36.06-.23,1.81.39-7.14,11.9c.93,1,1.09,1,1.61-.08s1-2,1.61-2.93c.22-.39.56-.88,1.06-.13.14.22.62.17.9.34q4.93,2.83,9.87,5.71a2.49,2.49,0,0,0,.6.33c1,.28,1.46.76,1,1.89-.14.34.34.93.55,1.41h0l.72-.23c-.22-.4-.43-.82-.73-1.38.13-.07.41-.34.6-.3a.88.88,0,0,1,.45.65,8.66,8.66,0,0,1,0,1.44l-.22.1a1.89,1.89,0,0,1-.21.09l-.11,0c-.21,0-.4,0-.52-.4h0a1,1,0,0,0-.19.34,1.31,1.31,0,0,0,.45,1.23h0l.31-.46,1.23.87-.06.27-.79.15-.68-.85h0l-.43,1.9L99.94,124c.14-.9.29-1.64.36-2.37a3.69,3.69,0,0,0-1.4-3.4,3.48,3.48,0,0,0-5.14.56,8.34,8.34,0,0,0-.94,1.27l-2.53,4.51L104,132.3l1-1.7L101,128.4l-8.23-4.63c-.55-.31-.71-.62-.34-1.15a22.54,22.54,0,0,1,1.77-2.57,2.47,2.47,0,0,1,3.08-.46,2.8,2.8,0,0,1,1.93,2.79,25.22,25.22,0,0,1-.8,3.33c.32,0,.69,0,1-.09,5.12-1,10.23-2.06,15.35-3.05a6.74,6.74,0,0,1,1.85.07c.1,0,.22.18.28.3.53,1.12,1,2.28,1.57,3.4a3.1,3.1,0,0,0,.71.64ZM88.07,143.82,85.37,140l.19-.21,4.44.55Zm42.12-13-4.26-2.39c-.13-.08-.16-.35-.23-.53.24,0,.54-.16.72-.07,1.16.61,2.28,1.28,3.53,2l1.29-2.06a2.21,2.21,0,0,0,.35.16c0,1.08-.88,1.87-1.4,2.91Zm3.07-5.16a2.74,2.74,0,0,1-3.73,1l-.11-.06a2.92,2.92,0,0,1,3-5,2.84,2.84,0,0,1,.94,3.9l-.08.12Zm-18.58-10.14-.15-2a1.4,1.4,0,0,1,.51,1.92Zm21.46,5.36c-2.19-.23-4.09-.41-6.1-.65.53-1.13,1.35-.5,2-.52a21.29,21.29,0,0,1,2.38.23c-.55-.73-1-1.28-1.41-1.91s-1.26-.94-.62-2Zm-26.73-17.33c0,.1.06.26.09.26a1.18,1.18,0,0,1,1.16,1.21,1,1,0,0,1-.06.35c-.38,1.46.71,1.17,1.39,1.41l.08,0c.43,1.1,1.16,2.2,1.17,3.31,0,.85-.24,1.54.64,2a1.64,1.64,0,0,1,.41.5l-2-.34.4-.72-1.61-.48c.19.19.37.39.72.77l-9.73-5.47c1.21-2.17,1.73-4.79,4.48-5.74.21.11.45.31.72.49l-.84.31c.82.79,1.25,1.62.21,2.39a6.19,6.19,0,0,1,1.06.76c.93,1,1.23,1.06,2.27-.06a10.67,10.67,0,0,1-1.63-.61c-.5-.28.6-1.24-.72-1.31,1.47-.26,1.47-.26,1.74.89Zm29.24,12.27c-.39.75-.83,1.47-1.27,2.27l-4.71-2.65,1.26-2.23c.07-.13.3-.17.45-.26,0,.19.17.43.1.57-.24.53-.57,1-.87,1.55l1.49.84.83-1.49c.07-.12.31-.14.47-.2,0,.17.15.38.09.51-.24.49-.54,1-.84,1.48l1.53.86.86-1.54c.09-.15.34-.2.51-.3,0,.21.16.44.09.59Zm4.07-7c-.3.12-.63.41-.87.35-1.1-.28-1.45.44-1.93,1.18s0,1.12.3,1.64a2.38,2.38,0,0,1,.17.91l-.33.09c-1.08-1.39-2.17-2.78-3.22-4.18-.36-.48-.18-.86.45-.8,1.8.15,3.58.34,5.35.49ZM117.14,96a1.29,1.29,0,0,0-1,.42c-.63,1-1.15,2.13-1.73,3.2a1,1,0,0,0,.15,1.35c1.18,1.36,2.31,2.76,3.46,4.14.75.91.75.91-.1,2.08-.21-.25-.41-.49-.59-.72q-4.6-6.29-9.25-12.48a5.22,5.22,0,0,1-.45-.92,4.92,4.92,0,0,1,1.08-.14c2.15.25,4.3.49,6.46.82a1.31,1.31,0,0,0,1.54-.75c1-1.74,2-3.43,3.1-5.13a4.84,4.84,0,0,1,.56-.63l.38.21-3.32,6.52,7.57.85c-.33.58-.59,1-.81,1.44a.93.93,0,0,1-1.11.52c-2-.28-3.94-.57-5.93-.78Zm27.93,8.66a4.34,4.34,0,0,1-.93.54c-.57.12-1.18.08-1.75.21a5.1,5.1,0,0,0-1.07.65c.71.4,1.23.66,1.71,1,.15.09.17.4.25.61-.2,0-.45.15-.59.08l-4.25-2.39c.61-1,.76-2.18,2.08-2.22a1.5,1.5,0,0,1,1.58,1.44l2.89-.22a.79.79,0,0,0,.06.34Zm-2.77-4.3,2.45,1.38a2.58,2.58,0,0,1,.69.38,4.69,4.69,0,0,1,.49.76,2.3,2.3,0,0,1-.84-.07c-1.1-.58-2.17-1.22-3.34-1.88a6.66,6.66,0,0,1-.75,1.16c-.07.12-.31.14-.47.21,0-.17-.16-.38-.1-.49.65-1.2,1.35-2.39,2.11-3.74.65,1-.43,1.42-.25,2.29Zm-24.51,33.93c.36.27,1.06.51,1.36.32a2.38,2.38,0,0,0,.68-.8l-1.89-.48c0,.17-.31.86-.17,1Z"/><path class="cls-3" d="M101.43,99a6.73,6.73,0,0,0,1.73-.28,5.79,5.79,0,0,0-.09-1.18c-.89.75-1,.67-1.7-.52l-1.43,1-1-.37.33,1.45c-1,0-1.78,0-2.55.06a6.91,6.91,0,0,0-1.11.27c-.21-.6-.71-.62-1.39-.12s-1.5,1-2.23,1.5a10.07,10.07,0,0,0-1,.91l-.14-.13.4-.86a15.28,15.28,0,0,0-2.34.86c-.42.24-1,.68-.43,1.36.07.08,0,.28,0,.43-1.27-.2-2.09.5-1.9,1.69a3,3,0,0,1-.63,2.08c-.24.41-.6.76-.81,1.18a3.31,3.31,0,0,0-.16,1l.16.05.46-.55L86,111l-.9-1.2a7,7,0,0,0,.34,1.56,7.59,7.59,0,0,1,.2,1.42c0,.38-.15.81,0,1.13.43,1.09,1,2.13,1.44,3.21.51,1.25.93,2.54,1.44,3.78.26.67.66,1.33,1,2.1l-1.47.37c-.4-.6-1.43-1.08-.31-2.13a11.91,11.91,0,0,1-1.94,1.22,6,6,0,0,0-2.52,1.78,3,3,0,0,1-.77.59A8.67,8.67,0,0,0,79.46,128,28.87,28.87,0,0,0,78,131.3l.65-.21-.23,2-.72.31a6,6,0,0,1,.6,1.48c.08.79-.34,1.64.42,2.32.1.1,0,.36.06.56l0,1.19,1.13.14a1.39,1.39,0,0,0,.42,1.92,1.48,1.48,0,0,0,.31.15c1.54.33,1.86,1.86,3,2.59a6.43,6.43,0,0,0,2.66,1c.09.55.23,1.12.3,1.7a17.38,17.38,0,0,1,0,1.91h0l.9.44.11-.75c.47-.12.83-.23,1.25-.31s.58-.07.89-.13h0c-2.94-3.84-5.35-8.11-9.12-11.33l.48.27c-.65-.74.74-2.19-.93-2.5a1.41,1.41,0,0,0,.28-2,1.82,1.82,0,0,1,.65-2,.66.66,0,0,1,.82.77,2.88,2.88,0,0,1-.59,1.05c.78.69-1,2.48,1.08,3l-.8.3A3,3,0,0,1,82,136a1.7,1.7,0,0,0,1.62,1.66c2.25.27,4.49.54,6.73.84a1,1,0,0,0,1.19-.59c1-1.75,2-3.44,3.11-5.14a6.48,6.48,0,0,1,.66-.81l.34.19-3.31,6.54,7.59.85a9.66,9.66,0,0,0-.56,1c-.3.84-.83,1-1.68.83-1.13-.23-2.33-.32-3.5-.48-2.8-.37-2.8-.37-4.13,2.08l-.14.26c-1.08,1.91-1.08,1.91.45,3.47.14.14.41.15.52.19.1.29.11.62.3.79.61.66,1,1.43,2.15,1.65a4.53,4.53,0,0,0,2.36.27c.57-.16,1.19-.13,1.78-.25a7.19,7.19,0,0,0,1.17-.44l-.07-.16h-1l-.1-.19,1.76-1.21-.11.72,1.61.39-.78.48a2.39,2.39,0,0,0,.22.23c.26-.35.79-.76.73-1-.22-1,.24-.81.84-.67s1.24.43,1.6.22c1.15-.71,2.56-1.12,3.31-2.4.06-.12.35-.23.39-.19.59.49.9,0,1.21-.34.45-.48.85-1,1.23-1.5l.29.7,1-.71a20.13,20.13,0,0,1,1.66-1.26c.64-.39,1.09-.15,1.16.65a9.35,9.35,0,0,0,1.72-.56,8.52,8.52,0,0,0,1.32-1.23l.14.87,2.4-1.29a1.34,1.34,0,0,1,.23.19l2.26-.74c-.13-.5-1.11-.36-.89-1.13l1.39.56-.08-.37c.15-.09.3-.26.46-.27a7.23,7.23,0,0,0,1.14,0,1,1,0,0,0,.57-.6c0-.16-.26-.48-.46-.57a2.42,2.42,0,0,0-.81,0v-.24l1.12,0,.23-1.23a2.09,2.09,0,0,1-.2-.22c-.45.38-.93.7-1.33,1.1a1.41,1.41,0,0,1-2-.15,1.29,1.29,0,0,1-.23-.39c-.59.26-1.84-.09-1.94-.57,0-.17.19-.41.29-.62l.21.12v.63l.25.14c0-.79.09-1.56,1.21-1.31-.61-.49.64-1.52-.28-1.74-.19.27-.34.53-.48.77-.37-.83-.44-1.46-1.35-1.39-.43,0-.89-.66-1.5-1.15l2.89.2c-.07.11-.16.27-.12.32a2.8,2.8,0,0,0,3.07.84c.08-.05,0-.51-.07-.57a1.58,1.58,0,0,0-.7,0l.32-.93-.68.08.1-.84-2.11-.5-.53-2.72a3.12,3.12,0,0,1-.73-.62c-.54-1.12-1-2.27-1.57-3.41-.06-.12-.18-.29-.28-.3a7.17,7.17,0,0,0-1.85-.06c-5.13,1-10.24,2-15.35,3-.35.06-.72.06-1,.09a24,24,0,0,0,.79-3.33c.16-1.39-.75-2.25-1.93-2.8a2.39,2.39,0,0,0-3.07.47,22.42,22.42,0,0,0-1.77,2.56c-.37.54-.21.85.34,1.16l8.23,4.62,3.91,2.2-1,1.7-13.73-7.71,2.54-4.51a8.28,8.28,0,0,1,.93-1.27,3.52,3.52,0,0,1,5.15-.56,3.7,3.7,0,0,1,1.4,3.4c-.07.74-.21,1.49-.37,2.37l14.67-2.3.44-1.9a1.29,1.29,0,0,1-.46-1.24,1.14,1.14,0,0,1,.19-.34c-.2-.48-.66-1.06-.55-1.41.46-1.14,0-1.61-1-1.89a2.93,2.93,0,0,1-.6-.33q-4.92-2.86-9.86-5.71c-.29-.16-.77-.12-.91-.34-.5-.75-.82-.26-1,.13-.57.94-1.1,1.94-1.61,2.93s-.68,1-1.62.08l7.14-11.9-1.8-.39-.06.23,1,.33c-.58.25-1.56.54-1.64.34-.43-.84-1-.49-1.66-.56-.29,0-.55-.47-.78-.76a.52.52,0,0,1,.06-.4,3.42,3.42,0,0,1,1,0C101.1,98.67,101.26,99,101.43,99ZM97.2,147.93c-.35.08-.71.34-1,.28s-.56-.42-.84-.66l.24-.42,1.3.43,0-.56.38.22.32-.83C98.39,147.5,98.33,147.64,97.2,147.93Zm6-1.82c.4-.4-1.18.14-.45-.73a6,6,0,0,0-.83.24,4.12,4.12,0,0,1-.83.37c.36-.52.26-1.45,1.17-1.41.18,0,.35.5.52.75.44-.15.88-.32,1.32-.46a2.56,2.56,0,0,1,1.25-.17Zm-1-5c-.78.27-1.44.53-2.12.77l-.1-.38c.73.18,1.14-1.35,2.17-.4Zm7.89,1.3c0-.29-.18-.61-.09-.86a4.27,4.27,0,0,1,.7-1c.19,1.09,0,1.55-.66,1.84Zm7.74-8.18c-.15-.09.14-.8.18-1l1.87.5a2.36,2.36,0,0,1-.75.82,1.74,1.74,0,0,1-1.38-.35Zm-18.29-30c-1.16,0-2.32,0-3.48.12a2,2,0,0,0-1,.35c-.69.42-1.32,1-2,1.3a9,9,0,0,1-1.94.58c-.81.18-1.16.61-.94,1.42l-1.82.81-.15-.18a35.5,35.5,0,0,1,2.63-2.76,21.71,21.71,0,0,1,3.25-1.6,9.19,9.19,0,0,1,3.35-1c.66-.08,1.35.47,2,.89Z"/><path class="cls-3" d="M66.86,163.87l.71,1a13.3,13.3,0,0,0-5,6.93,7.17,7.17,0,0,0,4.32,8.62l9.09-15.24.48.27a33.8,33.8,0,0,1-1.88,3.88c-.61,1.3-1.36,2.62-2.05,3.93s-1.4,2.67-2.12,4-1.44,2.57-2.15,3.83c3.26,2.2,8,1.09,10.37-2.26,1.38-2,1.93-3.8,2.07-6.95l1.26,0a27,27,0,0,1-.49,3.9A13,13,0,0,1,77.72,182c-3.68,3.36-8.37,3.26-12.65.27s-5.4-7.9-3-12.62A15.51,15.51,0,0,1,66.86,163.87Z"/><path class="cls-3" d="M97.48,154.57a4.55,4.55,0,0,1-1.18.75c-5.21,1.07-10.43,2.1-15.62,3.16a8.26,8.26,0,0,1-1,.07c.27-.7.51-1.26.7-1.82a3.31,3.31,0,0,0-.38-3.45,3,3,0,0,0-5,.2,22.32,22.32,0,0,0-1.45,2.57l12.8,7.2-1,1.79-13.81-7.76c1.25-2,2.37-4,3.72-5.81a3.18,3.18,0,0,1,3.86-1.16A3.71,3.71,0,0,1,81.78,154a23.1,23.1,0,0,1-.33,2.76l15.82-2.48Z"/><path class="cls-3" d="M120.35,87.19a4.27,4.27,0,0,0-.57.63c-1,1.7-2.11,3.39-3.1,5.13a1.3,1.3,0,0,1-1.57.75c-2.14-.32-4.29-.56-6.46-.82a5,5,0,0,0-1.08.13,5.55,5.55,0,0,0,.48.94q4.62,6.22,9.26,12.46c.18.24.37.46.59.72.88-1.16.88-1.15.11-2.08-1.16-1.38-2.29-2.78-3.47-4.14a1.06,1.06,0,0,1-.15-1.35c.6-1.06,1.1-2.17,1.73-3.2a1.3,1.3,0,0,1,1-.42c2,.21,4,.49,6,.77a.89.89,0,0,0,1.11-.52c.23-.51.47-.84.8-1.43l-7.57-.85,3.32-6.52ZM113.12,99l-2.83-3.71.16-.21,4.55.57Z"/><path class="cls-3" d="M111.09,111.11l.71.77-9.7-5.45c1.22-2.16,1.74-4.78,4.49-5.74l.72.5-.84.31c.81.78,1.24,1.62.2,2.39a5.76,5.76,0,0,1,1.07.76c.93,1,1.22,1,2.27-.07a10.67,10.67,0,0,1-1.63-.61c-.51-.28.6-1.23-.72-1.3,1.49-.26,1.49-.26,1.76.89,0,.1,0,.26.09.26a1.2,1.2,0,0,1,1.16,1.21,1,1,0,0,1-.06.35c-.38,1.46.71,1.17,1.38,1.41l.09,0c.42,1.1,1.16,2.21,1.17,3.31,0,.85-.24,1.54.64,2a1.64,1.64,0,0,1,.41.5l-2-.34.4-.72-1.66-.5.6-.66,1.13.76a9.34,9.34,0,0,0-.44-1.73,5.69,5.69,0,0,0-1-1.12l.83-.06c-.5-.45-.14-1.42-1.22-1.35l.34.93-1.76.4,0,.3a4.21,4.21,0,0,1,1.16.94A5.41,5.41,0,0,1,111.09,111.11Z"/><path class="cls-3" d="M96.7,97.58l-1-.1a1.29,1.29,0,0,1-1.51,1c-1-.21-1.66.38-2.46.7-.63.27-1.28.42-1.93.63l-1,.71,0-.68-.87-.24a16.46,16.46,0,0,1,10.18-3l.14.35-1,.55-.94.85-.18-.15Z"/><path class="cls-3" d="M128.44,122.72a2.81,2.81,0,0,0,.88,3.86l.1.06a2.74,2.74,0,0,0,3.78-.88l.06-.1a2.84,2.84,0,0,0-.73-4l-.15-.09a2.8,2.8,0,0,0-3.84.94A1.4,1.4,0,0,0,128.44,122.72Zm4.22,2.44a2,2,0,0,1-2.74.82l-.06,0a2.09,2.09,0,1,1,2.11-3.61h0a2,2,0,0,1,.71,2.75l0,0Z"/><path class="cls-3" d="M142,104.54a1.5,1.5,0,0,0-1.57-1.45c-1.33,0-1.48,1.28-2.09,2.23l4.25,2.39c.14.07.39,0,.59-.08-.08-.21-.11-.5-.25-.61-.46-.31-1-.56-1.71-1a4.38,4.38,0,0,1,1.07-.65c.57-.13,1.18-.09,1.75-.22a4,4,0,0,0,.93-.54c0-.1-.08-.2-.12-.3Zm-1.22,1.15-1.43-.81c.28-.66.61-1.26,1.36-.88S141.26,105,140.82,105.69Z"/><path class="cls-3" d="M137.27,108c-.61,0-.81.31-.45.79,1.05,1.41,2.14,2.79,3.21,4.18l.34-.09c-.06-.3,0-.67-.17-.9-.34-.52-.75-.9-.3-1.64s.82-1.47,1.93-1.19c.24.06.57-.22.86-.35l-.09-.32C140.85,108.3,139.07,108.11,137.27,108Zm1.76,2.37-1.21-1.52c.74.06,1.26.09,2,.16Z"/><path class="cls-3" d="M90,140.38l-1.93,3.44L85.37,140l.19-.21Z"/><path class="cls-3" d="M77.74,142.21l.3-.54,1,.21a1.32,1.32,0,0,0,1,1.59h.06a8,8,0,0,0,1.55.24c.89.07,1.56.31,1.4,1.57a13.84,13.84,0,0,1-2.65.11c-.45-.07-.89-.61-1.22-1C78.65,143.7,78.22,143,77.74,142.21Z"/><path class="cls-3" d="M132.68,115.45l1.25-2.23c.08-.13.3-.18.45-.26,0,.19.17.43.1.57-.24.52-.56,1-.87,1.55l1.49.83.84-1.48c.06-.12.3-.14.46-.2,0,.16.15.37.09.5-.24.5-.54,1-.84,1.49l1.53.86.86-1.54c.09-.16.34-.21.51-.31,0,.2.14.43.07.58-.38.75-.83,1.47-1.27,2.27Z"/><path class="cls-3" d="M136.14,120.88c-2.19-.23-4.09-.41-6.1-.65.53-1.13,1.35-.5,2-.52a21.29,21.29,0,0,1,2.38.23c-.55-.73-1-1.28-1.41-1.91s-1.26-.94-.62-2Z"/><path class="cls-3" d="M141.7,100.9a6.66,6.66,0,0,1-.75,1.16c-.08.13-.31.15-.47.22,0-.17-.16-.38-.1-.49.65-1.21,1.35-2.39,2.11-3.75.71,1-.37,1.42-.19,2.29l2.45,1.38a2.58,2.58,0,0,1,.69.38,4.29,4.29,0,0,1,.49.76,2.3,2.3,0,0,1-.84-.07C144,102.21,142.9,101.58,141.7,100.9Z"/><path class="cls-3" d="M130.19,130.82l-4.26-2.39c-.13-.08-.16-.35-.23-.53.24,0,.54-.16.72-.07,1.16.61,2.28,1.28,3.53,2l1.29-2.06.35.16C131.55,129,130.71,129.78,130.19,130.82Z"/><path class="cls-3" d="M86.6,148.36c-.29.06-.65.26-.85.15a33.08,33.08,0,0,1-3.1-1.82c-.5-.35-.38-.75.23-1A1.72,1.72,0,0,0,85,146.87a2,2,0,0,0,.59-.32l.29.92-.69.05,1.39.89Z"/><path class="cls-3" d="M85.69,102.17c.34-.67.75-1.23,1.49-1l.67-1.19A3.14,3.14,0,0,1,86,103.26c-.2-.35.93-1.11-.34-1.11Z"/><path class="cls-3" d="M77.28,139.25l-1.23-.68c-.46.4-.8.17-.93-.57C76.37,136.88,77,137.66,77.28,139.25Z"/><path class="cls-3" d="M85.69,102.15c-.09.42-.54.75-.12,1.32.15.2-.27.93-.57,1.31-.14.19-.58.15-.88.21l-.16-.26,1.73-2.56Z"/><path class="cls-3" d="M114.8,118.29l.75-.21-.74-1.39c.14-.07.41-.34.6-.29a.84.84,0,0,1,.42.61,8.66,8.66,0,0,1,0,1.44c-.42.16-.85.55-1.07-.2Z"/><path class="cls-3" d="M79.66,141.32l1.57,1.78-.36.31-1.64-1.71Z"/><path class="cls-3" d="M89.75,147.66l.54,1.28-.9.08-.08.26-.77-.66,1.27-1Z"/><path class="cls-3" d="M76.05,139.17l1.35,2.07-.32.24-1.48-2Z"/><path class="cls-3" d="M114.49,113.55a1.39,1.39,0,0,1,.52,1.92l-.33,0Z"/><path class="cls-3" d="M115.09,119.87l.3-.46,1.23.86-.06.27-.78.15-.7-.86Z"/><path class="cls-10" d="M90.22,108l-1.82.82-.16-.18a37.59,37.59,0,0,1,2.63-2.77,23.93,23.93,0,0,1,3.26-1.6,9.54,9.54,0,0,1,3.35-1,3.83,3.83,0,0,1,2,.91c-1.15,0-2.31,0-3.47.13a2,2,0,0,0-.88.36c-.69.42-1.32,1-2,1.3a9,9,0,0,1-1.94.58C90.34,106.8,90,107.23,90.22,108Z"/><path class="cls-10" d="M95.58,147.12l1.3.43,0-.56.39.22.31-.82c.79,1.07.72,1.23-.43,1.51-.35.08-.71.34-1,.28s-.57-.42-.85-.66Z"/><path class="cls-10" d="M102.78,145.33l1.32-.47a2.68,2.68,0,0,1,1.25-.17l-2.16,1.41c.4-.4-1.18.14-.45-.73Z"/><path class="cls-10" d="M102.78,145.33l0,0a5.91,5.91,0,0,0-.82.24,4.47,4.47,0,0,1-.84.37c.37-.52.26-1.45,1.18-1.41C102.45,144.59,102.58,145.06,102.78,145.33Z"/><path class="cls-10" d="M110.66,140.61c.25,1.09.08,1.55-.6,1.84a2.2,2.2,0,0,1-.1-.86A4.59,4.59,0,0,1,110.66,140.61Z"/><path class="cls-10" d="M100,141.53c.78.19,1.19-1.32,2.22-.39l-2.12.77Z"/><path class="cls-10" d="M110.45,95.12l4.54.57L113.11,99l-2.82-3.7Z"/><path class="cls-10" d="M111.09,111.11a5.43,5.43,0,0,0-.37-1.58,4.23,4.23,0,0,0-1.15-1l0-.3,1.76-.4L111,107c1.07-.08.74.91,1.22,1.34l-.83.07a5.93,5.93,0,0,1,1,1.11,8.91,8.91,0,0,1,.45,1.74l-1.13-.76-.6.66Z"/><path class="cls-10" d="M132,122.32a2.08,2.08,0,1,1-2.86.75,2.08,2.08,0,0,1,2.86-.75Z"/><path class="cls-10" d="M140.82,105.69l-1.43-.81c.28-.66.61-1.26,1.36-.88S141.26,105,140.82,105.69Z"/><path class="cls-10" d="M139.79,109l-.76,1.36-1.21-1.52Z"/><path class="cls-3" d="M93.37,193.56l.41-.74,5.64.93-.38.68-1.56-.24-1.07,1.91,1,1.2-.33.59Zm2.6,2,.84-1.49-1.35-.23-1.19-.22.8.91Z"/><path class="cls-3" d="M95.09,190.48l1.66-2.94.58.32L96,190.18l1.25.7.53-1a2.62,2.62,0,0,1,.52-.67,1.57,1.57,0,0,1,.59-.36,1.31,1.31,0,0,1,.62-.06,1.72,1.72,0,0,1,.66.22,1.54,1.54,0,0,1,.81,1,2.08,2.08,0,0,1-.33,1.48l-.89,1.58Zm2.75.72,1.71,1,.54-.95a1.36,1.36,0,0,0,.22-.92,1.1,1.1,0,0,0-1.26-.71,1.27,1.27,0,0,0-.67.66Z"/><path class="cls-3" d="M103.16,187.22a2.71,2.71,0,0,1-.61.74,2.1,2.1,0,0,1-.78.38,2.25,2.25,0,0,1-.93,0,3.24,3.24,0,0,1-1-.38l-.39-.22a3,3,0,0,1-.84-.67,2.23,2.23,0,0,1-.47-.8,2.17,2.17,0,0,1-.07-.88,2.47,2.47,0,0,1,.31-.9,2.63,2.63,0,0,1,.6-.73,2.14,2.14,0,0,1,.79-.38,2.38,2.38,0,0,1,.92,0,3.4,3.4,0,0,1,1,.38l.38.22a3.19,3.19,0,0,1,.84.66,2.33,2.33,0,0,1,.46.81,2.17,2.17,0,0,1,.08.88A2.35,2.35,0,0,1,103.16,187.22Zm-.6-.34a1.72,1.72,0,0,0,.2-.59,1.34,1.34,0,0,0-.07-.6,1.53,1.53,0,0,0-.34-.56,2.49,2.49,0,0,0-.63-.49l-.39-.22a2.78,2.78,0,0,0-.74-.29,1.72,1.72,0,0,0-.64,0,1.64,1.64,0,0,0-.55.26,1.68,1.68,0,0,0-.4.48,1.64,1.64,0,0,0-.21.61,1.32,1.32,0,0,0,.07.59,1.53,1.53,0,0,0,.34.56,2.18,2.18,0,0,0,.64.49l.35.21a2.25,2.25,0,0,0,.75.27,1.47,1.47,0,0,0,.66,0,1.25,1.25,0,0,0,.55-.25A1.74,1.74,0,0,0,102.56,186.88Z"/><path class="cls-3" d="M100.06,181.65l.35-.63,2,1.12,1.36-2.42-2-1.12.36-.63,4.68,2.63-.36.63L104.33,180,103,182.46l2.12,1.2-.35.62Z"/><path class="cls-3" d="M102.72,176.92l1.64-2.91.57.32-1.27,2.27,1.43.81,1.06-1.89.57.33-1.06,1.88,1.55.87,1.29-2.28.57.32-1.64,2.92Z"/><path class="cls-3" d="M104.83,173.16l.51-.9,3.43.24-2-2.81.51-.9,4.68,2.64-.36.64-4-2.24.53.71,1.44,2.06-.33.6-2.51-.16-.87-.1,4,2.24-.34.61Z"/><path class="cls-3" d="M107.88,167.74l1.63-2.91.58.32-1.28,2.29,1.43.8,1.06-1.88.57.32-1.05,1.88,1.54.88,1.29-2.29.57.32-1.63,2.91Z"/><path class="cls-3" d="M110,164l.36-.62,2,1.11,1.37-2.42-2-1.12.35-.63,4.69,2.64-.36.63-2.12-1.2-1.36,2.43L115,166l-.35.62Z"/><path class="cls-3" d="M113.85,158.48,113,160l-.58-.33,2-3.61.58.33-.84,1.49,4.1,2.31-.35.63Z"/></g></g><path class="cls-1" d="M34.09,110.89s-1.66-7.57-1.66-7.57c-1-3-2.37-3.91-4.72-6.94C23.57,91,25.86,73.9,25.86,73.9,13.67,87.55,3.84,115.24,12,136.59c13.87,36.42,55.72,6.27,55.72,6.27l-7.59-17.2S28,136.29,34.09,110.89Z"/><path class="cls-7" d="M62.59,131.24s7.75-6.4,12.48-6.22-5,5.17-5,5.17,9.89-2,15.81-.81,5.36,5.43-5.62,9.34-13,3-13,3Z"/></g></g></svg>