<svg xmlns="http://www.w3.org/2000/svg" viewBox="0 0 134.78 321.44"><defs><style>.cls-1{fill:#fcc0a2;}.cls-2{fill:#d8d8d8;}.cls-3{fill:#fff;}.cls-4{fill:#d37a4f;}.cls-5{fill:#211915;}.cls-6{fill:#a8a8a8;}.cls-7{fill:#4a4a4a;}.cls-8{fill:#ff0034;}.cls-9{fill:#a8d0db;}.cls-10{fill:#7eb0bc;}.cls-11,.cls-12{fill:#f1f2f2;}.cls-12{isolation:isolate;font-size:2.7px;font-family:BebasNeue-Regular, Bebas Neue;}</style></defs><g id="Layer_2" data-name="Layer 2"><g id="OBJECTS"><g id="old"><path class="cls-1" d="M49.73,35.86a7.52,7.52,0,0,0-7.18-4.1c-5.12.35-1.06,22.18,8.85,17.24,0,0,0,14.5,8.69,18.88C66.62,71.17,78.77,71.36,83.21,49c0,0-.68,2.2,4.1,0s1.37-16.93-1.71-17.25-3.07,5.48-3.07,5.48,2.73-16.06-11.62-20.16S45.63,24.93,49.73,35.86Z"/><path class="cls-2" d="M49.4,35.69a.91.91,0,0,1,.43.58c.41,1.51,1.84,6.94,2.33,9.38.57,2.85,2.66-2.18,1.71-4.89s-5.62-6.52-4.14-10.14,7.37-.66,7.75-5.75,4-7.26,7.53-5.8,3.69,6.32,7.5,5.8,4.56.05,5.7,2.71,2.48,2.92,2.48,5-.58,8.43,0,9.9,2.09,0,2.09,0,0-6.27,0-7.54.89-2.62,2.82-3.17,4.79-7.78,1.74-9.88-6.46-3.42-7.42-11.41S75.31,0,69.06,0,59,9.51,55.39,11.22s-10.71,8.28-9.66,12a11.09,11.09,0,0,1,.13,4.55,7.74,7.74,0,0,0,3.49,7.85Z"/><path class="cls-2" d="M53.87,40.76s0,8.69,4.29,10.32S64.48,48.22,69,49.45s12-3.15,11.72-7h2.09a87.12,87.12,0,0,0,1.47,11.67c1.23,6.12-4.48,9-6.72,14.48S68.76,76,62.85,73.7s-5.3-6.29-11.42-11.4.82-13.87.82-13.87-1.52-9.24-2.9-12.78Z"/><path class="cls-3" d="M77.38,54.18S74.16,51.29,71.24,53s-8,1.67-10.23,1.23-2.92,6.14,5.11,7S78.55,57.39,77.38,54.18Z"/><polygon class="cls-4" points="66.67 30.49 71.29 44.55 65.01 45.06 66.67 30.49"/><path class="cls-5" d="M61.23,35.81c0,1.08-.38,2-.85,2s-.84-.89-.84-2,.38-2,.84-2S61.23,34.72,61.23,35.81Z"/><path class="cls-5" d="M74.64,35.81c0,1.08-.37,2-.84,2s-.84-.89-.84-2,.38-2,.84-2S74.64,34.72,74.64,35.81Z"/><path class="cls-5" d="M58.9,43.87a8.36,8.36,0,1,1,8.36-8.35A8.36,8.36,0,0,1,58.9,43.87Zm0-15.74a7.39,7.39,0,1,0,7.39,7.39A7.4,7.4,0,0,0,58.9,28.13Z"/><rect class="cls-5" x="46.36" y="30.87" width="7.09" height="0.97" transform="translate(-7.9 19.87) rotate(-20.9)"/><rect class="cls-5" x="64" y="29.04" width="7.29" height="0.97"/><rect class="cls-5" x="83.33" y="31.26" width="2.27" height="0.97"/><path class="cls-4" d="M47.55,37.19s-2.71-2.06-4.39-1.67-.64,8.38,2.2,9.54,3.35.13,3-1.16-2.81-2.12-2.69-3.38S49,39.26,47.55,37.19Z"/><path class="cls-4" d="M83.25,37.87s1.27-2.61,2.59-2.65S89,43,87.34,44.8s-2.35.93-2.49-.39,1.33-2.69.84-3.85S82.9,40.17,83.25,37.87Z"/><path class="cls-5" d="M76.42,43.87a8.36,8.36,0,1,1,8.36-8.35A8.36,8.36,0,0,1,76.42,43.87Zm0-15.74a7.39,7.39,0,1,0,7.39,7.39A7.4,7.4,0,0,0,76.42,28.13Z"/><path class="cls-6" d="M30.59,171s-13.92,41.8,10.25,38.36,25.74-15.25,25.74-15.25l2.89-7.88Z"/><polygon class="cls-6" points="112.22 302.38 110.42 312.93 99.51 311.35 99.51 300.45 112.22 302.38"/><path class="cls-7" d="M112.34,310.57a70.59,70.59,0,0,0,9.68,5.24,5.44,5.44,0,0,1,2.89,2.37,2.26,2.26,0,0,1-2,3.26H99.29c-2.53,0-3.48-.91-2.78-3.34s.77-6.32,2.1-7.53C101.41,308,104.58,306.2,112.34,310.57Z"/><polygon class="cls-6" points="46.8 302.38 48.61 312.93 59.51 311.35 59.51 300.45 46.8 302.38"/><path class="cls-8" d="M36.34,158.48s-8.17,85.74,9,144.6H62.88S68.52,224.44,81,193.49c0,0,17.07,45.15,16.06,109.59h16.74s23.34-97.92,3-144.6Z"/><path class="cls-6" d="M56.85,183.76S53.5,204.5,34.4,212.08c0,0-.21-24.13.43-28.32Z"/><path class="cls-9" d="M96.54,179.32s9.5,20.74,28.6,28.33c0,0-.14-20.43-3.27-29.78Z"/><path class="cls-8" d="M98.84,303.12l-1-.08c5.44-73-17-108.94-17.26-109.29l.82-.53C81.66,193.58,104.3,229.75,98.84,303.12Z"/><path class="cls-7" d="M46.68,310.57A70.59,70.59,0,0,1,37,315.81a5.37,5.37,0,0,0-2.88,2.37,2.25,2.25,0,0,0,2,3.26H59.73c2.53,0,3.48-.91,2.79-3.34s-.77-6.32-2.1-7.53C57.61,308,54.45,306.2,46.68,310.57Z"/><polygon class="cls-8" points="43.83 300.45 44.73 303.75 64.24 303.75 64.8 300.45 43.83 300.45"/><path class="cls-10" d="M28.33,204.35s8.82-20.21,36.47-12.11,55.66,11.11,70-1.92c0,0-30.51-117.61-64.74-122.59S.31,97.56,28.33,204.35Z"/><rect class="cls-10" x="25.04" y="113.27" width="99.21" height="57.8" transform="matrix(-0.27, -0.96, 0.96, -0.27, -42.56, 251.92)"/><g id="OBJECTS-2" data-name="OBJECTS"><path class="cls-3" d="M42.47,65.8l64.32,1.11a8.4,8.4,0,0,1,7.68,5.3A8.16,8.16,0,0,1,115,75.3l-.65,38.05a2.82,2.82,0,1,0-.1,5.63h0l-2.06,119.87a8.1,8.1,0,0,1-.67,3.06,8.4,8.4,0,0,1-7.85,5l-23.58-.4a8.52,8.52,0,0,0-8.44-8.6,8.78,8.78,0,0,0-2.74.39,8.5,8.5,0,0,0-5.6,5.53,8,8,0,0,0-.38,2.38l-23.59-.4a8.33,8.33,0,0,1-8.23-8.39l2.06-119.87a2.82,2.82,0,1,0,.1-5.63l.66-38A8.33,8.33,0,0,1,42.47,65.8Z"/><path class="cls-8" d="M114.37,113.35l.65-38a8.33,8.33,0,0,0-8.23-8.39L42.47,65.8A8.33,8.33,0,0,0,34,73.9L33.29,112a2.85,2.85,0,0,1,2.81,2.71l75.37,1.3A2.84,2.84,0,0,1,114.37,113.35Z"/><rect class="cls-11" x="94.25" y="92.01" width="28.59" height="3.42" transform="translate(12.97 200.63) rotate(-89.01)"/><rect class="cls-11" x="90.59" y="92.8" width="28.59" height="1.71" transform="translate(9.44 196.91) rotate(-89.01)"/><rect class="cls-11" x="87.8" y="92.75" width="28.59" height="1.71" transform="translate(6.74 194.07) rotate(-89.01)"/><rect class="cls-11" x="85.01" y="92.7" width="28.59" height="1.71" transform="translate(4.05 191.24) rotate(-89.01)"/><rect class="cls-11" x="73.5" y="92.5" width="28.59" height="1.71" transform="matrix(0.02, -1, 1, 0.02, -7.07, 179.53)"/><rect class="cls-11" x="70.7" y="92.46" width="28.59" height="1.71" transform="matrix(0.02, -1, 1, 0.02, -9.76, 176.69)"/><rect class="cls-11" x="67.91" y="92.41" width="28.59" height="1.71" transform="translate(-12.46 173.85) rotate(-89.01)"/><rect class="cls-11" x="81.8" y="91.79" width="28.59" height="3.42" transform="translate(0.95 187.97) rotate(-89.01)"/><rect class="cls-11" x="77.28" y="91.71" width="28.59" height="3.42" transform="matrix(0.02, -1, 1, 0.02, -3.41, 183.38)"/><rect class="cls-11" x="64.11" y="91.49" width="28.59" height="3.42" transform="translate(-16.13 169.99) rotate(-89.01)"/><rect class="cls-11" x="60.14" y="91.42" width="28.59" height="3.42" transform="translate(-19.96 165.95) rotate(-89.01)"/><rect class="cls-11" x="58.43" y="91.39" width="28.59" height="3.42" transform="translate(-21.61 164.22) rotate(-89.01)"/><rect class="cls-11" x="54.77" y="92.18" width="28.59" height="1.71" transform="translate(-25.14 160.49) rotate(-89.01)"/><rect class="cls-11" x="51.98" y="92.13" width="28.59" height="1.71" transform="translate(-27.84 157.65) rotate(-89.01)"/><rect class="cls-11" x="49.19" y="92.09" width="28.59" height="1.71" transform="translate(-30.54 154.81) rotate(-89.01)"/><rect class="cls-11" x="37.68" y="91.89" width="28.59" height="1.71" transform="translate(-41.65 143.11) rotate(-89.01)"/><rect class="cls-11" x="34.88" y="91.84" width="28.59" height="1.71" transform="translate(-44.35 140.27) rotate(-89.01)"/><rect class="cls-11" x="32.09" y="91.79" width="28.59" height="1.71" transform="translate(-47.04 137.43) rotate(-89.01)"/><rect class="cls-11" x="45.98" y="91.17" width="28.59" height="3.42" transform="translate(-33.63 151.55) rotate(-89.01)"/><rect class="cls-11" x="41.46" y="91.1" width="28.59" height="3.42" transform="translate(-38 146.96) rotate(-89.01)"/><rect class="cls-11" x="28.29" y="90.87" width="28.59" height="3.42" transform="translate(-50.71 133.56) rotate(-89.01)"/><rect class="cls-11" x="25.45" y="90.85" width="28.59" height="3.37" transform="translate(-53.45 130.68) rotate(-89.01)"/><text class="cls-12" transform="matrix(-1.02, -0.02, 0.02, -1, 87.26, 74.61)">09197517 3759231 021 21 A</text><path class="cls-8" d="M93.94,218.61,94,214.4h.85l-.06,3.32,1.81,0,0-1.39a3.33,3.33,0,0,1,.17-1,1.92,1.92,0,0,1,.44-.74,1.77,1.77,0,0,1,.66-.45,2.34,2.34,0,0,1,.87-.14,2,2,0,0,1,1.51.62,2.59,2.59,0,0,1,.51,1.82l0,2.29Zm3.5-.84,2.49,0,0-1.38a1.63,1.63,0,0,0-.3-1.13,1.19,1.19,0,0,0-.91-.37,1.21,1.21,0,0,0-.93.34,1.61,1.61,0,0,0-.35,1.11Z"/><path class="cls-8" d="M94,212.87l0-.9,5.77.1-1-.52-4.72-2.72,0-1.23,6.81.12v.9l-5.77-.1,1,.52,4.72,2.72,0,1.23Z"/><path class="cls-8" d="M100.16,206.9v-.2a.78.78,0,0,0-.09-.4.74.74,0,0,0-.37-.33,2.67,2.67,0,0,0-.78-.22,11.38,11.38,0,0,0-1.3-.1l-3.45-.05.07-4.41,6.81.12v.9l-6-.1,0,2.6,2.62,0a9.68,9.68,0,0,1,1.7.15,3.08,3.08,0,0,1,1,.38,1.32,1.32,0,0,1,.53.61,2.27,2.27,0,0,1,.13.82v.19Z"/><path class="cls-8" d="M94.27,199.76l.07-4.17.84,0-.06,3.26,2.06,0,0-2.69h.84l0,2.69,2.25,0,.06-3.26h.83l-.07,4.17Z"/><path class="cls-8" d="M95.23,193l0,2.12h-.84l.09-5.17.84,0,0,2.12,6,.11,0,.9Z"/><path class="cls-8" d="M60.21,186.75l-.61.45-.68.57.21.54-.76,0h0c-.23-.4-.43-.82-.69-1.2s-.53-.67-.82-1a2.88,2.88,0,0,1-2.15.25c-.75-.2-1.46-.47-2.2-.69-.22-.07-.56.2-.75.11a9.19,9.19,0,0,1-1.3-.82l.08-.26-.76.25c-.28-.54-.52-1.12-1.2-1.37-.26-.09-.38-.54-.57-.81s-.53-.72-.82-1.13l.31-.34L46.9,180l-.33.35a22.56,22.56,0,0,1-.18-2.6,6.3,6.3,0,0,1,.88-3.21,1.76,1.76,0,0,0,.28-.66,4.21,4.21,0,0,1,1.27-2.2c.28-.27.29-.77.5-1.19-.31,1,.57.91,1.06,1.22,0-.07.09-.24.19-.28,1.09-.49.28-.72-.11-1.07-.74-.62-1.45-1.26-2.18-1.9a5,5,0,0,0-.47-.33c-.76-.52-1.54-1-2.25-1.59-.27-.22-.35-.65-.56-1a6,6,0,0,0-.66-.84,4.5,4.5,0,0,1-.73-.84l1.06.47L43.57,163l-.09.55c-.09,0-.16-.06-.16-.08,0-.53-.1-1.07-.1-1.6a2.33,2.33,0,0,0-.36-1.69,1,1,0,0,1,.43-1.57c.07,0,.05-.3,0-.46,0-.34-.24-.76-.1-1a8.21,8.21,0,0,1,1.18-1.31l.1.84c.51-1,1-1.82,1.35-2.68.28-.67.46-.79,1.29-.49l-.1-.5,2.09-1c-.18-.32,0-.89-.88-.63l.15-.29.82-.08.6-1.18c.82.58,1,.55,1.24-.25l.56.71c-.37.26-.72.55-1.09.79-.08.06-.25-.06-.36,0a4.59,4.59,0,0,0-.77.31s.05.31.12.34c.27.09.63.26.85.16.39-.16.63-.47,1.16-.18.18.1.72-.44,1-.82l-.81.14,0-.15,1.46-.4c-.19,1.36-.38,2.6-.52,3.85,0,.4.11.83.1,1.24,0,1.62-.11,3.24-.19,4.86,0,.43.21.46.54.48s.54-.09.52-.5c0-.77-.06-1.54,0-2.31,0-.41-.33-1,.76-.88a33,33,0,0,0,4.21-.05c1.67,0,3.34.13,5,.19a2.25,2.25,0,0,0,.73,0c.66-.18.88.23,1,.71a1.4,1.4,0,0,0,.88.91v0c-.06.57.28.82.77,1v0l.36,1.41-8.83,6.61c-.23-.62-.38-1.15-.61-1.66a2.76,2.76,0,0,0-2.18-1.7,2.62,2.62,0,0,0-3.15,2.24,5,5,0,0,0-.15.93c0,1.31,0,2.62-.07,4l11.76.2,0-1.45-11-.19c-.5-2.14.15-3.93,1.6-4.17a3.07,3.07,0,0,1,1.84.24,2.94,2.94,0,0,1,1,1.39,9.18,9.18,0,0,1,.36,2,7.94,7.94,0,0,0,.75-.52c2.89-2.35,5.76-4.71,8.65-7a11.58,11.58,0,0,1,1.59-1c1.17.65,1.86,1.75,3.29,2l1.28,1.54,1.55-.42.31.62.29-.35.21.72a2.47,2.47,0,0,1,.46-.23.27.27,0,0,1,.24.09.29.29,0,0,1,0,.27,2.16,2.16,0,0,1-2.32.52s0-.16,0-.27l-.94.42-.92.42v.21a12.06,12.06,0,0,1,1.59,0A3.89,3.89,0,0,1,75,167l0,.27-1.33.28a6.82,6.82,0,0,0,.23.77c.1.23,1,0,1.09-.32a9.3,9.3,0,0,0,.14-1.5c.68-.09.29.89.81,1-.54.29-.54.29-.52,1.24l-.26-.46c-.11.14-.3.28-.28.38s.25.33.34.31c.44-.11,1.08.35,1.26-.45a1,1,0,0,0,1.69-.41c.07-.31.6-.52.22-.92l.45-.2.31.9-.75.41.09.17c.14-.07.28-.22.43-.22a3.52,3.52,0,0,1,.66.15c-.08.21-.11.48-.28.62a5.76,5.76,0,0,1-.7.33c-.09.06-.12.21-.17.33l.16.23L77.5,170c0,.73.76,0,.9.51l-1.16,1.19-.21-.06-1.11,1.68-.5-.61,0,1.19a4.32,4.32,0,0,0-.73.47,5.27,5.27,0,0,0-.49.74c-.38-.6-.77-.5-1-.06s-.47,1-.67,1.47c-.11.24-.24.48-.39.76l-.42-.38-.38,2c-.59-.05-.73.18-.83.72a6.78,6.78,0,0,1-1.37,2.47c-.19.26-.79.23-1.21.31s-.51.28-.25.53c.46.44,0,.71-.18,1l.28-.59-1.17.27-.19-.48-.71,1.49.13.09.68-.35.09.1a6.51,6.51,0,0,1-.69.7,16.11,16.11,0,0,1-1.35.93,2.73,2.73,0,0,1-.81.38,2.93,2.93,0,0,1-2.47-.2,6.57,6.57,0,0,1-.57-.48c-.06,0-.24.12-.37.08-1.55-.46-1.55-.47-1.54-2.09v-.29c0-2,0-2,1.84-2.66.87-.33,1.73-.7,2.62-1,.62-.18.91-.48.81-1.12a6.18,6.18,0,0,1,0-.86L58.74,180c-.09-1.85,0-3.64-.18-5.4h-.33c0,.65-.13,1.3-.17,2-.06,1.09-.07,2.18-.17,3.27a1,1,0,0,1-.52.71c-1.58.65-3.2,1.24-4.8,1.86a1.25,1.25,0,0,1-1.51-.39c-.17-.18-.36-.35-.59-.57l.29-.34s-.08-.08-.1-.07c-.68.18-.9-.28-1.14-.76-.16-.33-.35-.65-.55-1,.35-.26.44-.58-.1-.94s-.63-.14-.72.33a1.22,1.22,0,0,0,.61,1.46c.27.15.31.69.47,1.11,1-.36.62,1.07,1.33,1.34l-.4,0c3.62.77,6.73,2.71,10.06,4.16ZM68,180.69c-.21-.11-.49-.36-.62-.3-.63.3-.2.89-.29,1.36a3.76,3.76,0,0,0,.45-.6,3.16,3.16,0,0,1,.42-.4c-.19.82.72-.08.57.36l.93-1.74a2.11,2.11,0,0,0-.8.62ZM46.4,160.91c-.41-.44-.37-.85.13-1.29A4.79,4.79,0,0,0,48,158c.47-1.32,1.56-1.88,2.63-2.53.18-.11.37-.21.56-.31a.75.75,0,0,0-.57-.07c-.54.19-1.22,0-1.56.71-.17.35-.59.58-.89.87a9.87,9.87,0,0,0-1.89,2,13.62,13.62,0,0,0-.9,3c0,.1,0,.24.09.4Zm17.44,23.51,0,.29c.25.08.63.31.74.22.46-.38,1.13-.65,1.13-1.36l-.6-.37-.31.83.07.19-1,.19Zm7.77-7.9c.5-.71.42-1.14-.28-1.64Zm-5.5,1.69c-1.09-.28-.76.91-1.39,1l.19.22Z"/><path class="cls-8" d="M56.79,216.06,57.35,203h.39a23.8,23.8,0,0,1,.14,3.16c.06,1.05,0,2.18,0,3.27s0,2.22,0,3.34,0,2.16-.05,3.24a5.84,5.84,0,0,0,5.67-3.56c.7-2.19.5-4-.77-6.78l.77-.38a16.79,16.79,0,0,1,.79,1.59,9.25,9.25,0,0,1-.12,7c-1.26,2.94-4.47,4.51-8,4a7.13,7.13,0,0,1-6.52-7.2,12.43,12.43,0,0,1,1.1-5.37l.89.38a9.89,9.89,0,0,0-1,5.63A5.39,5.39,0,0,0,56.79,216.06Z"/><path class="cls-8" d="M52.5,197.91l11,.19,0,1.48-11.79-.2c.11-1.8-.15-3.61.39-5.38a2.32,2.32,0,0,1,1.95-1.76,2.72,2.72,0,0,1,2.82,1,17,17,0,0,1,1.13,2.3c3.14-2.33,6.33-4.73,9.51-7.11l.22.13c-.16.31-.24.69-.49.89-3,2.52-6.11,5-9.18,7.51a5.73,5.73,0,0,1-.62.38c-.13-.71-.18-1.33-.35-1.94a2.22,2.22,0,0,0-2.41-1.72,2.09,2.09,0,0,0-2.12,1.94A17.62,17.62,0,0,0,52.5,197.91Z"/><path class="cls-8" d="M59.24,136.86l-.09,5.42,5.44-2.14c0,.46,0,.79,0,1.13a.68.68,0,0,1-.55.78c-1.41.51-2.8,1-4.21,1.56a.66.66,0,0,0-.52.74c0,.82,0,1.64,0,2.47a.9.9,0,0,0,.67,1c1.24.45,2.46,1,3.7,1.45.83.32.83.32.64,1.36l-12-5.53a7.89,7.89,0,0,1,.81-.44c1.56-.61,3.11-1.22,4.68-1.78a.91.91,0,0,0,.7-1c0-1.47.14-2.94.22-4.42a4.15,4.15,0,0,1,.14-.61Zm-.92,7.32-3.45,1.33L58.28,147Z"/><path class="cls-8" d="M61.24,155.58l.7.24-8.41-.15c0-1.23,0-2.44.1-3.63a4.11,4.11,0,0,1,.84-1.54c.08-.11.42-.05.75-.08l-.47.55c.71.28,1.44.56,1,1.48a4.4,4.4,0,0,1,1,.12c1,.34,1.17.25,1.46-.8-.19,0-.41-.1-.56,0-.52.22-1,.45-1-.44a2.44,2.44,0,0,0-.54-.09c.72-.61.79-.6,1.35,0,.05.06.12.15.15.14.65-.24,1,.11,1.26.62a2.09,2.09,0,0,1,.08.23.54.54,0,0,0,.62.44.41.41,0,0,0,.18-.05c.54-.21,1-.34,1.34.36.06.14.33.19.49.3.44.3.89.53.87,1.22,0,.25.49.54.79.76a2.13,2.13,0,0,0,.7.18l-1.45.47,0-.61-1.28.27.19-.63,1,.11a6.16,6.16,0,0,0-.86-1,4.85,4.85,0,0,0-1-.42l.5-.32c-.51-.14-.65-.89-1.31-.44l.53.48-1,.88,0,.21A2,2,0,0,1,61.24,155.58Z"/><path class="cls-8" d="M47.81,150.82l-.52.81-.3.87-.17,0,.13-.61-.71.25a1,1,0,0,1-.61,1.21c-.78.23-1,.89-1.44,1.43a4.52,4.52,0,0,1-1.06.89c-.27.21.44.94-.52.87l.06-.44-.62.15C42.45,154.32,46,151.2,47.81,150.82Z"/><path class="cls-8" d="M79,155a2.15,2.15,0,1,1-2.14,2.26v-.15A2.09,2.09,0,0,1,78.9,155Zm1.51,2.15a1.5,1.5,0,0,0-1.44-1.56h-.12a1.55,1.55,0,1,0,0,3.1,1.5,1.5,0,0,0,1.52-1.51v0Z"/><path class="cls-8" d="M79.33,140.49l1.82-1.16c.29.53-.1.71-.41.93-.49.36-1.19.51-1.25,1.47.47,0,.92,0,1.37,0,.12,0,.23.18.34.27-.11.1-.23.27-.34.28-1.2,0-2.4,0-3.66-.07.07-.82-.28-1.68.6-2.17A1.16,1.16,0,0,1,79.33,140.49Zm-.24,1.17a4.05,4.05,0,0,0-.46-1,.62.62,0,0,0-.63,0,3.71,3.71,0,0,0-.41,1Z"/><path class="cls-8" d="M81.27,143c-.2.19-.36.5-.58.56-.78.19-.65.77-.7,1.32a.86.86,0,0,0,.69,1c.21.08.34.36.51.55l-.18.18c-1.21-.53-2.41-1-3.62-1.59-.43-.2-.36-.5,0-.67l3.65-1.54Zm-1.81,2.33,0-1.21-1.36.59,1.4.62Z"/><path class="cls-8" d="M57.76,182l0,2.89-3.32-1.6Z"/><path class="cls-8" d="M50.34,187.45V187l.74-.21a1,1,0,0,0,1.15.7,7.23,7.23,0,0,0,1.11-.37c.6-.26,1.19-.47,1.55.49a9.05,9.05,0,0,1-1.69,1,2,2,0,0,1-1.23-.26C51.43,188.07,50.9,187.75,50.34,187.45Z"/><path class="cls-8" d="M77.46,148.6l.16,1.68,1.2,0c0-.42,0-.82,0-1.23,0-.11.13-.21.2-.32.09.11.25.22.26.34,0,.38,0,.76,0,1.2l1.3,0,0-1.68c.54.21.61.69.38,2.26l-3.9-.07,0-2.17Z"/><path class="cls-8" d="M77.16,151.38l4.07,1.78L77,154.86c-.05-.9.71-.79,1.12-1a13.81,13.81,0,0,1,1.54-.63c-.8-.76-2.11-.66-2.68-1.61Z"/><path class="cls-8" d="M77.79,138.23a9.21,9.21,0,0,1-.08,1c0,.11-.16.2-.24.29-.08-.1-.22-.21-.22-.31,0-.92,0-1.83,0-2.75,0-.09.12-.17.19-.26l.27.25s0,.05,0,.08c.17,1.09.17,1.09,1.31,1.11.59,0,1.18,0,1.76,0,.15,0,.29.17.43.26-.16.11-.31.29-.46.29C79.83,138.28,78.87,138.25,77.79,138.23Z"/><path class="cls-8" d="M80.41,161.1l0-1.82c.54.22.63,1.14.34,2.4l-3.57-.07c-.11,0-.22-.17-.34-.26.13-.1.26-.29.39-.29C78.26,161.06,79.26,161.09,80.41,161.1Z"/><path class="cls-8" d="M58.37,188.33c-.15.14-.3.39-.46.39-.92,0-1.85,0-2.78-.11-.46-.05-.41-.36-.17-.67a1.31,1.31,0,0,0,2.11-.44l.51.49-.49.28,1.3.09Z"/><path class="cls-8" d="M41.29,158.65c.13-.9.13-.9.64-1.17l0-.9c.92.94.16,1.78.07,2.86-.29-.43,0-1.19-.74-.82Z"/><path class="cls-8" d="M47.92,185.67c-.19.43-.48.35-.81-.07.56-1,.83-1,1.89.08Z"/><path class="cls-8" d="M41.28,158.62c.11.33-.05.69.43.95s.12,1.22-.6,1.43l.18-2.36Z"/><path class="cls-8" d="M66.24,158.92l.46-.38-1-.67s.11-.35.17-.35a.94.94,0,0,1,.6.24,5.28,5.28,0,0,1,.54.92c-.22.26-.39.63-.79.22Z"/><path class="cls-8" d="M52.82,187.14l-1.68-.55.12-.36,1.67.56Z"/><path class="cls-8" d="M60.19,186.77c.26.23.53.45.85.71l-.52.05,0,.46-.78-.17.45-1.06Z"/><path class="cls-8" d="M49.61,187.21,48,186.42l.18-.35,1.61.86Z"/><path class="cls-8" d="M64.4,156a1,1,0,0,1,1,1.08l-.19.13Z"/><path class="cls-8" d="M67,159.86l0-.39,1.32.17-.55.52-.83-.32Z"/><path class="cls-8" d="M46.4,160.9l-1,1.21c0-.17-.12-.3-.09-.41a13.45,13.45,0,0,1,.89-3,9.9,9.9,0,0,1,1.9-2c.29-.3.72-.52.88-.88.35-.72,1-.51,1.57-.7a.71.71,0,0,1,.57.06c-.19.1-.38.2-.56.31-1.07.65-2.16,1.21-2.64,2.53a4.62,4.62,0,0,1-1.42,1.59C46,160.08,46,160.46,46.4,160.9Z"/><path class="cls-8" d="M63.83,184.41l1-.2-.08-.18.31-.84.6.38c0,.7-.67,1-1.13,1.36-.1.08-.48-.15-.74-.23Z"/><path class="cls-8" d="M68,180.69l.67-.7a2.11,2.11,0,0,1,.8-.62l-.93,1.74c.15-.44-.76.46-.57-.36Z"/><path class="cls-8" d="M68,180.69l0,.06a3.16,3.16,0,0,0-.42.4,3.76,3.76,0,0,1-.45.6c.08-.47-.35-1.07.29-1.36C67.47,180.33,67.75,180.58,68,180.69Z"/><path class="cls-8" d="M71.6,176.51l-.28-1.64C72,175.38,72.11,175.8,71.6,176.51Z"/><path class="cls-8" d="M66.11,178.2l-1.2,1.25-.2-.22C65.34,179.11,65,177.94,66.11,178.2Z"/><path class="cls-8" d="M61.24,155.58a2,2,0,0,0-2-1.09l-.05-.21,1-.88-.53-.48c.66-.45.81.3,1.31.44l-.5.32a4.21,4.21,0,0,1,1,.42,6.16,6.16,0,0,1,.86,1l-1-.12-.19.64Z"/></g><path class="cls-1" d="M18.62,144.38c9.9,7.44,28.31,13,62.4,6.3l-1.24-12.83S40,146.73,24,98.77L13.33,116.38A21.28,21.28,0,0,0,18.62,144.38Z"/><path class="cls-9" d="M33.53,96.81c0-.07.08-3.47.08-3.55.1-6.75.31-17.81.31-17.81C20.72,82.79,4.18,97.49.53,120c-6.24,38.47,45.08,33.33,45.08,33.33L48,131.21S31.13,116.71,33.53,96.81Z"/><path class="cls-1" d="M115.79,91.25c-2.42-.41.16-.32-1.91.5.8.9.14,3.3-.44,4.84-1.92,5.14-2.23,11.56-3.64,16.87-.64,2.37-3.29,3.65-4.58,5.78-.41.67-4.15,5.67-4.67,6.26-2.86,22.5-18.93,31.31-18.93,31.31l7.43,7.86C144.66,126.22,115.79,91.25,115.79,91.25Z"/><path class="cls-1" d="M79.12,138s4.65-6.1,9-7.37-3.07,6.46-3.07,6.46,8.43-4.89,14.15-5.6,6.48,3.54-2.39,10.61-15.8,8.6-15.8,8.6Z"/><path class="cls-1" d="M81.62,156.81s-9.89.82-13,4.15,7.15.17,7.15.17-8.17,5.31-11.38,10.11.24,7.37,10.55,2.64,14.8-10.23,14.8-10.23Z"/><path class="cls-9" d="M115.66,87.77c-3-3.94,2.47-4.86-.72-7.46a56.59,56.59,0,0,1-1.43,15.12c-1.43,6-1.88,6-3,14.87.08,1.49-10.28,14.35-10.24,15.92l22.6,4.39S134.82,113.28,115.66,87.77Z"/></g></g></g></svg>