<svg xmlns="http://www.w3.org/2000/svg" width="50" height="50" viewBox="0 0 50 50"><g transform="translate(-187 -5618)"><g transform="translate(187 5618)" fill="none" stroke="#707070" stroke-width="2"><circle cx="25" cy="25" r="25" stroke="none"/><circle cx="25" cy="25" r="24" fill="none"/></g><path d="M30.624,7.959c.206-.7,0-1.209-.991-1.209h-3.28a1.409,1.409,0,0,0-1.426.93,27.486,27.486,0,0,1-4.032,6.711c-.763.763-1.114,1.008-1.532,1.008-.206,0-.524-.245-.524-.941v-6.5c0-.835-.234-1.209-.924-1.209H12.758a.791.791,0,0,0-.835.752c0,.791,1.181.975,1.3,3.2v4.834c0,1.058-.189,1.253-.607,1.253-1.114,0-3.82-4.088-5.424-8.766-.323-.908-.64-1.275-1.481-1.275H2.433c-.936,0-1.125.44-1.125.93,0,.869,1.114,5.185,5.185,10.888,2.712,3.893,6.533,6,10.008,6,2.088,0,2.345-.468,2.345-1.275,0-3.72-.189-4.071.858-4.071.485,0,1.32.245,3.269,2.122,2.228,2.228,2.6,3.225,3.843,3.225H30.1c.936,0,1.409-.468,1.136-1.392-.624-1.944-4.84-5.942-5.029-6.21-.485-.624-.345-.9,0-1.459.006-.006,4.01-5.642,4.422-7.552Z" transform="translate(195.192 5627.75)" fill="none" stroke="#707070" stroke-width="2"/></g></svg>