<svg xmlns="http://www.w3.org/2000/svg" width="50" height="50" viewBox="0 0 50 50"><g transform="translate(-308 -5618)"><g transform="translate(308 5618)" fill="none" stroke="#707070" stroke-width="2"><circle cx="25" cy="25" r="25" stroke="none"/><circle cx="25" cy="25" r="24" fill="none"/></g><g transform="translate(318 5632)"><path d="M30.871,9.415a3.865,3.865,0,0,0-2.645-2.822C25.88,6,16.5,6,16.5,6S7.118,6,4.772,6.649A3.865,3.865,0,0,0,2.127,9.472,42.317,42.317,0,0,0,1.5,16.937a42.317,42.317,0,0,0,.627,7.522,3.857,3.857,0,0,0,2.645,2.709c2.345.649,11.727.649,11.727.649s9.381,0,11.727-.649a3.865,3.865,0,0,0,2.645-2.822,42.316,42.316,0,0,0,.627-7.409,42.316,42.316,0,0,0-.627-7.522Z" transform="translate(-1.499 -6)" fill="none" stroke="#707070" stroke-linecap="round" stroke-linejoin="round" stroke-width="2"/><path d="M14.625,22.53l8.625-4.905-8.625-4.9Z" transform="translate(-3.115 -6.69)" fill="none" stroke="#707070" stroke-linecap="round" stroke-linejoin="round" stroke-width="2"/></g></g></svg>