<svg xmlns="http://www.w3.org/2000/svg" width="50" height="50" viewBox="0 0 50 50"><g transform="translate(-369 -5618)"><g transform="translate(369 5618)" fill="none" stroke="#707070" stroke-width="2"><circle cx="25" cy="25" r="25" stroke="none"/><circle cx="25" cy="25" r="24" fill="none"/></g><g transform="translate(381 5630)"><path d="M9.75,3h13.5A6.75,6.75,0,0,1,30,9.75v13.5A6.75,6.75,0,0,1,23.25,30H9.75A6.75,6.75,0,0,1,3,23.25V9.75A6.75,6.75,0,0,1,9.75,3Z" transform="translate(-3 -3)" fill="none" stroke="#707070" stroke-linecap="round" stroke-linejoin="round" stroke-width="2"/><path d="M24,17.055A6,6,0,1,1,18.945,12,6,6,0,0,1,24,17.055Z" transform="translate(-4.511 -4.489)" fill="none" stroke="#707070" stroke-linecap="round" stroke-linejoin="round" stroke-width="2"/><path d="M26.25,9.75h0" transform="translate(-5.325 -3.675)" fill="none" stroke="#707070" stroke-linecap="round" stroke-linejoin="round" stroke-width="2"/></g></g></svg>