<svg xmlns="http://www.w3.org/2000/svg" width="50" height="50" viewBox="0 0 50 50"><g transform="translate(-248 -5618)"><g transform="translate(248 5618)" fill="none" stroke="#707070" stroke-width="2"><circle cx="25" cy="25" r="25" stroke="none"/><circle cx="25" cy="25" r="24" fill="none"/></g><path d="M27,4.5A12.634,12.634,0,0,1,23.36,6.27a5.193,5.193,0,0,0-9.11,3.477v1.159A12.356,12.356,0,0,1,3.818,5.656s-4.636,10.432,5.8,15.068A13.492,13.492,0,0,1,1.5,23.042c10.432,5.8,23.182,0,23.182-13.33a5.216,5.216,0,0,0-.093-.962A8.948,8.948,0,0,0,27,4.5Z" transform="translate(259 5628.016)" fill="none" stroke="#707070" stroke-linecap="round" stroke-linejoin="round" stroke-width="2"/></g></svg>