<?xml version="1.0" encoding="utf-8"?>
<!-- Generator: Adobe Illustrator 24.1.3, SVG Export Plug-In . SVG Version: 6.00 Build 0)  -->
<svg version="1.1" id="Layer_1" xmlns="http://www.w3.org/2000/svg" xmlns:xlink="http://www.w3.org/1999/xlink" x="0px" y="0px"
	 viewBox="0 0 731.5 382.8" style="enable-background:new 0 0 731.5 382.8;" xml:space="preserve">
<style type="text/css">
	.st0{opacity:0.2;}
	.st1{fill:#FFFFFF;}
	.st2{fill:#FF0034;}
	.st3{fill:#F1F2F2;}
	.st4{font-family:'BebasNeue-Regular';}
	.st5{font-size:10.16px;}
</style>
<g id="OBJECTS">
	<g class="st0">
		
			<image style="overflow:visible;enable-background:new    ;" width="3048" height="1595" xlink:href="BA7B377C.png"  transform="matrix(0.24 0 0 0.24 0 0)">
		</image>
	</g>
	<path class="st1" d="M704.3,72v238c0,12.6-7.7,24-19.4,28.8c-3.7,1.5-7.6,2.3-11.6,2.3H530.1c0-5.8-4.7-10.6-10.6-10.6
		S509,335.2,509,341c0,0,0,0,0,0H58c-4,0-7.9-0.8-11.6-2.3C34.8,334,27.1,322.7,27,310v-87.2c17.6,0,31.8-14.2,31.8-31.8
		c0-3.4-0.6-6.8-1.6-10.1c-3.3-9.8-11.2-17.4-21.1-20.4c-2.9-0.9-6-1.3-9-1.3V72c0-17.1,13.9-31,31-31H509c0,5.8,4.8,10.6,10.6,10.6
		c5.8,0,10.6-4.7,10.6-10.6h143.1C690.4,41.1,704.2,54.9,704.3,72z"/>
	<path class="st2" d="M530.1,341h143.1c17.1,0,31-13.9,31-31V72c0-17.1-13.9-31-31-31H530.1c0,5.6-4.4,10.3-10,10.6v278.9
		C525.7,330.8,530.1,335.4,530.1,341z"/>
	<rect x="549.8" y="311.9" class="st3" width="107.5" height="12.7"/>
	<rect x="549.8" y="301.5" class="st3" width="107.5" height="6.3"/>
	<rect x="549.8" y="291.2" class="st3" width="107.5" height="6.3"/>
	<rect x="549.8" y="280.9" class="st3" width="107.5" height="6.3"/>
	<rect x="549.8" y="238.3" class="st3" width="107.5" height="6.3"/>
	<rect x="549.8" y="228" class="st3" width="107.5" height="6.3"/>
	<rect x="549.8" y="217.6" class="st3" width="107.5" height="6.3"/>
	<rect x="549.8" y="265.8" class="st3" width="107.5" height="12.7"/>
	<rect x="549.8" y="249.1" class="st3" width="107.5" height="12.7"/>
	<rect x="549.8" y="200.4" class="st3" width="107.5" height="12.7"/>
	<rect x="549.8" y="185.7" class="st3" width="107.5" height="12.7"/>
	<rect x="549.8" y="179.4" class="st3" width="107.5" height="12.7"/>
	<rect x="549.8" y="169" class="st3" width="107.5" height="6.3"/>
	<rect x="549.8" y="158.7" class="st3" width="107.5" height="6.3"/>
	<rect x="549.8" y="148.3" class="st3" width="107.5" height="6.3"/>
	<rect x="549.8" y="105.8" class="st3" width="107.5" height="6.3"/>
	<rect x="549.8" y="95.4" class="st3" width="107.5" height="6.3"/>
	<rect x="549.8" y="85.1" class="st3" width="107.5" height="6.3"/>
	<rect x="549.8" y="133.3" class="st3" width="107.5" height="12.7"/>
	<rect x="549.8" y="116.6" class="st3" width="107.5" height="12.7"/>
	<rect x="549.8" y="67.8" class="st3" width="107.5" height="12.7"/>
	<rect x="549.8" y="57.5" class="st3" width="107.5" height="12.4"/>
	<text transform="matrix(6.123234e-17 -1 1 6.123234e-17 674.05 238.29)" class="st3 st4 st5">09197517 3759231 021 21 A</text>
	<path class="st2" d="M133,272.2h15.8v3.1h-12.5v6.7h5.2c1.3,0,2.7,0.2,3.9,0.6c1,0.3,2,0.9,2.8,1.6c0.8,0.7,1.3,1.5,1.7,2.4
		c0.4,1,0.6,2.1,0.6,3.2c0.1,2.1-0.7,4.2-2.2,5.6c-1.5,1.4-3.8,2-6.8,2H133L133,272.2z M136.3,285.1v9.2h5.2c1.5,0.1,3-0.3,4.2-1.2
		c0.9-0.9,1.4-2.1,1.3-3.4c0.1-1.3-0.4-2.5-1.3-3.4c-1.2-0.9-2.7-1.3-4.2-1.2L136.3,285.1z"/>
	<path class="st2" d="M154.6,272.2h3.4v21.4l1.9-3.7l9.9-17.6h4.6v25.2H171V276l-1.9,3.7l-9.9,17.6h-4.6L154.6,272.2z"/>
	<path class="st2" d="M177.4,294.4h0.7c0.5,0,1.1-0.1,1.5-0.4c0.5-0.3,1-0.8,1.2-1.4c0.4-0.9,0.7-1.9,0.8-2.9
		c0.2-1.6,0.3-3.2,0.3-4.8v-12.8h16.6v25.2h-3.4v-22.1h-9.8v9.7c0,2.1-0.1,4.2-0.5,6.3c-0.2,1.4-0.7,2.7-1.4,3.9
		c-0.5,0.9-1.3,1.6-2.2,2c-1,0.4-2,0.6-3.1,0.5h-0.7V294.4z"/>
	<path class="st2" d="M203.9,272.2h15.7v3.1h-12.3v7.6h10.1v3.1h-10.1v8.3h12.3v3.1h-15.7V272.2z"/>
	<path class="st2" d="M229.5,275.3h-8v-3.1H241v3.1h-8v22.1h-3.4L229.5,275.3z"/>
	<path class="st2" d="M250.6,145.4c-0.6-0.7-1.1-1.5-1.7-2.2c-0.6-0.7-1.4-1.6-2.2-2.5l-2,0.8c-0.1-1.1-0.1-2-0.2-2.8l-0.1,0.1
		c1.5-0.9,3.1-1.7,4.5-2.7s2.5-2,3.8-3.1c-1.4-2.4-1.8-5.3-1.1-7.9c0.7-2.8,1.7-5.4,2.4-8.2c0.2-0.8-0.8-2.1-0.5-2.8
		c0.9-1.7,1.9-3.3,3-4.9l1,0.3l-1-2.8c2-1.1,4.2-2,5.1-4.5c0.3-0.9,2-1.4,3-2.1c1.4-1,2.7-2,4.2-3.1l1.3,1.1l5.1-2.3l-1.3-1.2
		c3.3-0.3,6.5-0.9,9.8-0.9c4.2,0.1,8.4,0.8,12.1,3.1c0.8,0.5,1.6,0.8,2.5,1c3.4,0.5,5.9,2.3,8.4,4.6c1,1,2.9,1,4.5,1.8
		c-3.6-1.1-3.4,2.2-4.5,4c0.3,0.2,0.9,0.3,1.1,0.7c1.9,4,2.7,1,4-0.5c2.3-2.8,4.7-5.4,7-8.2c0.4-0.6,0.9-1.1,1.2-1.8
		c1.9-2.8,3.7-5.8,5.8-8.5c0.8-1,2.4-1.3,3.6-2.1c1.1-0.8,2.1-1.6,3.1-2.5c0.9-1,2-1.9,3.1-2.7l-1.7,3.9l4.8-4.1l-2.1-0.3
		c0.2-0.3,0.2-0.6,0.3-0.6c2-0.2,4-0.5,6-0.5c2.2,0,4.4,0.2,6.4-1.5s4.5-0.9,5.9,1.5c0.2,0.3,1.1,0.2,1.7,0.1
		c1.3-0.1,2.9-0.9,3.7-0.4c1.8,1,3.2,2.7,5,4.3l-3.2,0.4c3.8,1.8,6.9,3.5,10.2,4.8c2.5,1,3,1.7,1.9,4.8l1.9-0.4l4,7.6
		c1.2-0.7,3.4-0.1,2.3-3.3l1.1,0.6c0.1,1.2,0.3,2.4,0.4,3l4.5,2.2c-2.1,3.1-2,3.7,1,4.6l-2.6,2.1c-1-1.4-2.1-2.7-3-4
		c-0.2-0.3,0.2-0.9,0.1-1.3c-0.3-1-0.7-1.9-1.2-2.8c0-0.1-1.2,0.2-1.3,0.5c-0.3,1-0.9,2.3-0.6,3.2c0.6,1.4,1.8,2.3,0.8,4.3
		c-0.4,0.7,1.7,2.6,3.1,3.8l-0.6-3l0.6-0.2c0.5,1.6,0.9,3.1,1.6,5.4c-5.1-0.6-9.8-1.3-14.5-1.7c-1.5-0.1-3.1,0.4-4.6,0.4
		c-6.1-0.1-12.2-0.2-18.3-0.4c-1.6,0-1.7,0.8-1.8,2s0.4,2,1.9,1.9c2.9-0.2,5.8-0.4,8.7-0.2c1.5,0,3.9-1.3,3.4,2.8
		c-0.7,5.1,0.4,10.4,0.4,15.6c0,6.2-0.3,12.3-0.4,18.5c-0.1,0.9,0,1.8,0.2,2.7c0.7,2.4-0.8,3.3-2.6,3.8c-1.4,0.4-3.2,2-3.4,3.3
		l0.1-0.1c-2.1-0.2-3.1,1.1-3.6,2.9l0.1-0.1l-5.3,1.4l-25.5-32.3c2.3-0.9,4.3-1.5,6.2-2.3c3.4-1.4,5.8-4.5,6.3-8.2
		c0.8-6-2.4-10.3-8.6-11.5c-1.2-0.3-2.3-0.4-3.5-0.5c-4.9-0.1-9.8,0-15,0v43.5h5.5v-40.5c8-2,14.8,0.3,15.8,5.6
		c0.5,2.3,0.2,4.7-0.8,6.8c-1,1.8-3.2,3.2-5.2,4s-4.6,1-7.3,1.4c0.8,1.1,1.3,2,2,2.8c9,10.5,18.1,21,27,31.5
		c1.4,1.8,2.6,3.8,3.7,5.8c-2.4,4.4-6.5,7-7.3,12.3l-5.7,4.8c0.5,1.9,1.1,3.8,1.7,5.7l-2.3,1.2l1.4,1.1l-2.7,0.8
		c0.4,0.5,0.7,1.1,0.9,1.7c0.1,0.3-0.1,0.7-0.3,0.9c-0.3,0.2-0.7,0.2-1,0.1c-2.1-1.2-3.4-6.4-2.1-8.5c0.1-0.2,0.6-0.1,1-0.1
		c-0.6-1.3-1.1-2.4-1.6-3.4s-1.1-2.3-1.6-3.4H327c0.2,1.9,0.3,3.9,0.2,5.9c-0.3,1.2-0.8,2.4-1.4,3.5l-1,0.1
		c-0.4-1.6-0.8-3.1-1.2-4.9c-1,0.2-1.9,0.5-2.9,0.9c-0.9,0.4,0,3.7,1.3,4c1.9,0.3,3.7,0.4,5.6,0.4c0.4,2.5-3.3,1.1-3.8,3.1
		c-1.1-2-1.1-2-4.7-1.9l1.7-1c-0.5-0.4-1.1-1.1-1.4-1s-1.2,0.9-1.1,1.3c0.4,1.6-1.3,4,1.7,4.6c-1.9,2.3-1,5.6,1.7,6.2
		c1.2,0.3,2,2.2,3.5,0.8l0.8,1.7l-3.4,1.2l-1.6-2.8l-0.6,0.4c0.3,0.5,0.9,1,0.9,1.6c-0.1,0.8-0.2,1.7-0.5,2.5
		c-0.8-0.3-1.8-0.4-2.3-1s-0.8-1.8-1.3-2.6c-0.2-0.3-0.8-0.4-1.2-0.6l-0.9,0.6c-0.1-1.3-0.2-2.5-0.4-4c-2.8,0.2-0.1,2.8-1.9,3.4
		l-4.5-4.2c0,0.1,0.1-0.4,0.2-0.8l-6.4-4l2.3-1.9h-4.5c-0.5-0.9-1.1-1.8-1.8-2.6c-0.9-0.7-1.8-1.3-2.8-1.8c2.3-1.5,1.9-2.9,0.1-3.9
		c-1.8-0.9-3.7-1.7-5.5-2.4c-0.9-0.4-1.8-0.9-2.9-1.4l1.4-1.6l-7.6-1.3c0.1-2.2-0.7-2.7-2.8-3c-3.5-0.6-6.5-2.9-9.4-4.9
		c-1-0.7-0.9-2.9-1.3-4.4c-0.3-1.3-1.1-1.9-2-0.9c-1.6,1.7-2.7,0.2-3.9-0.6l2.3,1c-0.4-1.7-0.7-2.8-1.1-4.3l1.8-0.7l-5.6-2.5
		l-0.3,0.5c0.4,0.8,0.9,1.6,1.4,2.5l-0.4,0.3c-0.9-0.8-1.8-1.6-2.7-2.5c-1.3-1.6-2.5-3.2-3.6-4.9c-0.7-0.9-1.2-1.9-1.5-3
		c-0.8-3.1-1.3-6.2,0.6-9.2c0.5-0.7,1.1-1.4,1.8-2.1c-0.1-0.2-0.5-0.9-0.3-1.4c1.6-5.8,1.6-5.8,7.7-5.8h1.1
		c7.4-0.2,7.4-0.2,10.1,6.6c1.3,3.2,2.7,6.4,3.8,9.6c0.7,2.3,1.9,3.3,4.3,2.9c1.1-0.1,2.1-0.1,3.2,0c-2.8-6.6-5.5-12.9-8.3-19.5
		c6.9-0.4,13.7-0.3,20.3-1v-1.2c-2.5-0.2-4.9-0.4-7.4-0.5c-4.1-0.2-8.2-0.1-12.3-0.4c-1.1-0.2-2.1-0.9-2.7-1.9
		c-2.6-5.8-4.9-11.8-7.3-17.6c-1-2.3-0.2-4,1.4-5.6c0.7-0.6,1.3-1.3,2.1-2.2l1.3,1.1c0.1-0.1,0.3-0.3,0.3-0.4
		c-0.7-2.5,1-3.3,2.8-4.3c1.2-0.6,2.4-1.3,3.8-2.1c1,1.3,2.2,1.6,3.5-0.4c0.9-1.5,0.5-2.3-1.3-2.6c-2.4-0.4-4.1,0-5.4,2.3
		c-0.6,1-2.6,1.2-4.2,1.8c1.4,3.6-4,2.3-4.9,5l-0.1-1.5C262.9,121.4,255.8,133,250.6,145.4L250.6,145.4z M273.9,173.6
		c0.4-0.8,1.3-1.8,1.1-2.3c-1.2-2.3-3.4-0.7-5.1-1c0.7,0.6,1.5,1.2,2.3,1.6c0.5,0.5,1.1,1,1.5,1.6c-3.1-0.7,0.4,2.6-1.3,2.1l6.6,3.4
		c-0.5-1.2-1.3-2.2-2.4-2.9L273.9,173.6z M346.9,92.6c1.6-1.5,3.2-1.4,4.9,0.4s3.7,4.4,6.1,5.2c5,1.7,7.2,5.7,9.7,9.6
		c0.4,0.7,0.8,1.4,1.2,2.1c0.3-0.6,0.4-1.4,0.2-2.1c-0.7-2,0-4.5-2.8-5.7c-1.3-0.6-2.2-2.1-3.3-3.2c-2.5-2.4-4.7-5.4-7.6-6.9
		c-3.4-1.8-7.5-2.2-11.4-3.1c-0.4-0.1-0.9,0.2-1.5,0.4L346.9,92.6z M259.6,158.6l-1.1-0.1c-0.3,0.9-1.1,2.4-0.8,2.7
		c1.5,1.7,2.6,4.2,5.2,4.1l1.4-2.3l-3.2-1.1l-0.7,0.3C260.1,161,259.9,159.8,259.6,158.6L259.6,158.6z M289.8,186.9
		c2.7,1.8,4.3,1.5,6.2-1.1L289.8,186.9z M283.1,166.7c1-4.1-3.5-2.8-4-5.1l-0.8,0.7L283.1,166.7z"/>
	<path class="st2" d="M140.1,134.6l49.2,1.3l0.1,1.4c-3.9,0.8-7.9,0.4-11.9,0.7c-4,0.3-8.2,0.3-12.3,0.4s-8.4,0.3-12.6,0.3
		c-4.2,0.1-8.2,0-12.2,0c-1,8.1,6,18.5,13.7,20.8c8.3,2.4,15.1,1.6,25.4-3.3l1.5,2.8c-1.9,1.1-3.9,2.1-5.9,3
		c-8.5,3.4-17.9,3.4-26.4,0c-11.1-4.4-17.2-16.2-15.7-29.3c1.7-14.5,11.9-23.9,26.7-24.6c6.9-0.3,13.9,1,20.3,3.7l-1.4,3.3
		c-6.6-3.1-14-4.2-21.2-3.2C146.5,113.3,139,122.9,140.1,134.6z"/>
	<path class="st2" d="M208.1,117.6v40.8h-5.6v-43.6c6.7,0.3,13.5-0.8,20.2,1.1c3.6,1,6.1,3.3,6.8,7.1c0.7,4.1,0,8-3.6,10.5
		c-2.5,1.7-5.4,2.8-8.6,4.3c9,11.4,18.2,23.1,27.4,34.7l-0.5,0.8c-1.1-0.6-2.6-0.9-3.4-1.7c-9.7-11.1-19.3-22.3-28.8-33.5
		c-0.5-0.7-1-1.5-1.5-2.3c2.7-0.5,5-0.8,7.3-1.4c4.4-1.3,6.6-4.6,6.3-9c-0.3-4.3-2.8-7.1-7.4-7.7C213.9,117.4,211,117.4,208.1,117.6
		z"/>
	<path class="st2" d="M438.1,138.6h-20.4l8.4,20c-1.7,0-3-0.1-4.3,0c-1.6,0.1-2.4-0.5-3-2c-2-5.2-4.1-10.3-6.1-15.5
		c-0.3-1.3-1.5-2.1-2.8-1.9c-3.1,0.2-6.2,0.2-9.3,0.2c-1.7-0.2-3.2,0.9-3.6,2.5c-1.6,4.6-3.5,9.2-5.2,13.8c-1.2,3.1-1.2,3.1-5.1,2.5
		l20-44.9c0.6,1,1.2,2,1.7,3c2.4,5.7,4.8,11.4,7,17.2c0.8,2,1.8,2.5,3.8,2.6c5.5,0,11.1,0.3,16.6,0.5c0.8,0.1,1.5,0.3,2.3,0.5
		L438.1,138.6z M410.5,135.7c-1.7-4.1-3.3-8-5.2-12.7l-5.5,12.7H410.5z"/>
	<path class="st2" d="M367.9,147.2l-0.8,2.6v-31.1c4.7,0,9.2-0.3,13.7,0.1c2,0.2,4,1.8,5.8,3c0.4,0.3,0.2,1.6,0.4,2.8l-2.1-1.7
		c-1,2.7-2,5.4-5.5,3.6c0,1.3-0.1,2.6-0.4,3.8c-1.2,3.6-0.9,4.3,3.1,5.4c0-0.7,0.3-1.5,0.1-2.1c-0.9-1.9-1.8-3.7,1.6-3.8
		c0.2-0.7,0.3-1.3,0.3-2c2.3,2.6,2.3,2.9-0.1,5c-0.2,0.2-0.6,0.4-0.5,0.6c1,2.4-0.4,3.7-2.2,4.7c-0.3,0.1-0.6,0.3-0.9,0.3
		c-1.1,0.2-1.8,1.2-1.6,2.3c0,0.2,0.1,0.4,0.2,0.6c0.8,2,1.3,3.8-1.3,5c-0.5,0.2-0.7,1.2-1.1,1.8c-1.1,1.6-1.9,3.3-4.5,3.3
		c-0.9,0-2,1.9-2.8,3c-0.4,0.8-0.6,1.7-0.6,2.6l-1.9-5.3h2.3c-0.4-1.6-0.7-3.2-1.1-4.7l2.4,0.7c-0.1,0.9-0.2,2-0.4,3.7
		c1.3-1,2.5-2.1,3.6-3.3c0.7-1.2,1.2-2.5,1.5-3.8c0.2,0.3,0.6,0.9,1.2,1.8c0.5-1.9,3.3-2.4,1.6-4.9l-1.8,2l-3.4-3.7l-0.8,0.2
		C371.9,143.1,370.8,145.8,367.9,147.2z"/>
	<path class="st2" d="M384.9,97.2l-3.1-1.9l-3.3-1.1l0.1-0.6l2.3,0.4l-1-2.6c-2.1,0.4-3.9-0.2-4.6-2.2c-0.9-2.9-3.4-3.7-5.5-5.2
		c-1.3-1.1-2.5-2.4-3.4-3.8c-0.8-1-3.5,1.7-3.3-1.9l1.7,0.2c-0.2-0.8-0.4-1.5-0.6-2.3C371.4,77.6,383.4,90.4,384.9,97.2z"/>
	<path class="st2" d="M371.4,212.8c0,4.4-3.4,7.7-8.1,7.8c-4.3,0.2-7.9-3.2-8.1-7.5c-0.2-4.3,3.2-7.9,7.5-8.1c0.2,0,0.4,0,0.6,0
		c4.3-0.2,7.9,3.2,8.1,7.5C371.4,212.6,371.4,212.7,371.4,212.8z M363.4,218.5c3.1,0.1,5.7-2.3,5.8-5.4c0-0.1,0-0.3,0-0.4
		c-0.1-3.2-2.8-5.7-6-5.6c-3.2,0.1-5.7,2.8-5.6,6C357.6,216.1,360.2,218.6,363.4,218.5C363.3,218.5,363.3,218.5,363.4,218.5
		L363.4,218.5z"/>
	<path class="st2" d="M425.8,213.2l4.5,6.6c-2,1.1-2.7-0.3-3.5-1.4c-1.4-1.8-2-4.4-5.6-4.6c0,1.8,0.1,3.4,0,5.1c0,0.4-0.6,0.9-1,1.3
		c-0.4-0.4-1-0.8-1-1.3c-0.1-4.4,0-8.9,0-13.5c3.1,0.2,6.3-1.1,8.2,2.1C428.5,209.6,427.7,211.7,425.8,213.2z M421.4,212.3
		c1.3-0.4,2.6-1,3.7-1.8c0.4-0.7,0.4-1.6-0.1-2.4c-1.1-0.6-2.4-1.1-3.6-1.5V212.3z"/>
	<path class="st2" d="M416.4,220.5c-0.7-0.7-1.9-1.3-2.1-2.1c-0.8-2.9-2.9-2.3-5-2.5s-3.1,0.8-3.8,2.6c-0.3,0.8-1.3,1.3-2,1.9
		l-0.7-0.6c1.9-4.5,3.8-9,5.8-13.5c0.7-1.6,1.9-1.4,2.5,0.1c2,4.5,4,9,6,13.4L416.4,220.5z M407.5,214l4.5-0.2l-2.3-5
		C409,210.6,408.4,212,407.5,214L407.5,214z"/>
	<path class="st2" d="M268.4,136h-10.9c1.9-4.1,3.7-7.9,5.8-12.4L268.4,136z"/>
	<path class="st2" d="M247.3,108.9h1.7l0.9,2.7c-1.6,0.1-3,2.3-2.6,4.3c0.4,1.4,0.8,2.8,1.5,4.1c1,2.2,1.8,4.4-1.7,5.8
		c-1.2-1.9-2.9-3.9-3.8-6.2c-0.5-1.3,0.3-3.1,0.9-4.6C245,113,246.2,111,247.3,108.9z"/>
	<path class="st2" d="M395.2,206.8l-6.3,0.7v4.5c1.6,0,3.1-0.1,4.6,0c0.4,0,0.8,0.5,1.2,0.7c-0.4,0.4-0.8,0.9-1.3,1
		c-1.4,0.1-2.9,0.1-4.5,0.1v4.8h6.3c-0.8,2-2.6,2.3-8.5,1.6v-14.5h8.2C395,206,395.1,206.4,395.2,206.8z"/>
	<path class="st2" d="M384.7,205.8l-6.4,15.2c-2.4-5.5-4.5-10.4-6.7-15.5c3.4-0.2,3,2.6,3.9,4.1c0.9,1.8,1.8,3.7,2.5,5.7
		c2.8-3,2.3-7.8,5.9-10L384.7,205.8z"/>
	<path class="st2" d="M434.2,207.3c-1.5-0.1-2.7,0-3.9-0.2c-0.4-0.1-0.7-0.6-1.1-0.9c0.4-0.3,0.8-0.8,1.2-0.8c3.5-0.1,6.9,0,10.4,0
		c0.3,0,0.6,0.4,1,0.7l-1,1c0,0.1-0.2,0-0.3,0c-4.1,0.7-4.1,0.7-4.1,4.9c0,2.2,0.1,4.4-0.1,6.5c0,0.5-0.6,1.1-1,1.6
		c-0.4-0.6-1.1-1.1-1.1-1.7C434.1,214.9,434.2,211.3,434.2,207.3z"/>
	<path class="st2" d="M348.3,218.4h6.9c-0.8,2-4.2,2.4-9,1.4c0-4.4,0-8.8,0-13.2c0-0.4,0.6-0.9,0.9-1.3c0.4,0.5,1.1,0.9,1.1,1.4
		C348.4,210.5,348.3,214.2,348.3,218.4z"/>
	<path class="st2" d="M244.5,138.7c-0.5-0.6-1.5-1.1-1.5-1.7c-0.1-3.4,0-6.9,0.2-10.3c0.1-1.7,1.3-1.6,2.5-0.7
		c-2.2,2.9-1.5,6.4,1.8,7.8l-1.8,1.9l-1.1-1.8C244.6,135.7,244.5,137.2,244.5,138.7L244.5,138.7z"/>
	<path class="st2" d="M355,73.6c3.4,0.4,3.4,0.4,4.5,2.3h3.4c-3.5,3.5-6.7,0.7-10.8,0.4C353.7,75.2,356.6,76.5,355,73.6L355,73.6z"
		/>
	<path class="st2" d="M253.9,99.9c-1.6-0.7-1.4-1.8,0.2-3c3.8,2,3.8,3-0.2,7V99.9z"/>
	<path class="st2" d="M355.1,73.6c-1.2,0.4-2.6-0.1-3.5,1.7c-0.9,1.8-4.6,0.5-5.4-2.2L355.1,73.6L355.1,73.6z"/>
	<path class="st2" d="M355.6,165.9l1.4,1.7l2.5-3.7c0.2,0.1,1.3,0.4,1.3,0.6c0,0.8-0.3,1.6-0.9,2.2c-1.1,0.8-2.2,1.5-3.4,2.1
		C355.6,168,354.2,167.4,355.6,165.9L355.6,165.9z"/>
	<path class="st2" d="M248.6,118.1l1.9-6.3l1.4,0.4l-2,6.2L248.6,118.1z"/>
	<path class="st2" d="M250.5,145.3c-0.8,1-1.7,2-2.6,3.2l-0.2-1.9l-1.8,0.1c0.2-1.1,0.4-2,0.6-2.9L250.5,145.3L250.5,145.3z"/>
	<path class="st2" d="M248.2,106.2l2.9-6.1l1.3,0.6l-3.1,6L248.2,106.2z"/>
	<path class="st2" d="M366.6,158.9c-0.4,2.9-2,3.5-4,3.6l-0.5-0.7L366.6,158.9z"/>
	<path class="st2" d="M352.1,168.8l1.5,0.2l-0.5,4.9l-2-2L352.1,168.8L352.1,168.8z"/>
	<path class="st2" d="M346.9,92.6l-4.6-3.5c0.6-0.2,1.1-0.5,1.5-0.4c3.8,0.9,8,1.4,11.4,3.1c3,1.5,5.1,4.5,7.6,6.9
		c1.1,1.1,2,2.6,3.3,3.2c2.7,1.2,2,3.8,2.8,5.7c0.2,0.7,0.1,1.5-0.2,2.1c-0.4-0.7-0.8-1.4-1.2-2.1c-2.5-3.9-4.7-7.9-9.7-9.6
		c-2.3-0.8-4.2-3.2-6.1-5.2S348.5,91.1,346.9,92.6z"/>
	<path class="st2" d="M259.6,158.6c0.3,1.2,0.5,2.3,0.8,3.7l0.7-0.3l3.2,1.1l-1.4,2.3c-2.6,0.1-3.7-2.4-5.2-4.1
		c-0.3-0.4,0.5-1.8,0.8-2.7L259.6,158.6z"/>
	<path class="st2" d="M273.9,173.7l2.7,2.4c1,0.8,1.8,1.8,2.4,2.9l-6.6-3.4c1.7,0.5-1.8-2.8,1.3-2.1L273.9,173.7z"/>
	<path class="st2" d="M273.9,173.7l-0.2-0.1c-0.5-0.6-1-1.1-1.5-1.6c-0.8-0.5-1.6-1-2.3-1.6c1.8,0.3,4-1.4,5.1,1
		C275.2,171.8,274.3,172.9,273.9,173.7z"/>
	<path class="st2" d="M289.8,186.9l6.2-1.1C294.1,188.3,292.5,188.7,289.8,186.9z"/>
	<path class="st2" d="M283.1,166.6l-4.8-4.3l0.8-0.7C279.7,163.9,284,162.6,283.1,166.6z"/>
	<path class="st2" d="M367.9,147.2c3-1.4,4-4.1,4-7.3l0.8-0.2l3.4,3.7l1.8-2c1.7,2.4-1.1,3-1.6,4.9c-0.6-0.9-1-1.4-1.2-1.8
		c-0.3,1.3-0.9,2.6-1.5,3.8c-1.1,1.2-2.3,2.3-3.6,3.3c0.2-1.7,0.3-2.8,0.4-3.7L367.9,147.2C367.8,147.2,367.8,147.2,367.9,147.2z"/>
</g>
</svg>
