<svg xmlns="http://www.w3.org/2000/svg" width="455.258" height="820" viewBox="0 0 455.258 820"><defs><style>.a{fill:#7eb0bc;}.b{fill:#db093b;}.c{fill:#ff0034;}.d{fill:#4a4a4a;}.e{fill:#a8a8a8;}.f{fill:#a8d0db;}.g{fill:#fcc0a2;}.h{fill:#d37a4f;}.i{fill:#211915;}.j{fill:#fff;}.k{fill:#f4a173;}.l{fill:#e6e6e6;}.m{fill:#f1f2f2;font-size:7px;font-family:BebasNeue-Regular, Bebas Neue;}</style></defs><g transform="translate(-0.004 -0.002)"><g transform="translate(0.004 0.002)"><path class="a" d="M47.09,74.763S81.867,29.182,172.757,76.45Z" transform="translate(81.043 94.656)"/><path class="a" d="M62.3,60.83S177.955,42.6,225.577,135.256,52.723,113.35,62.3,60.83Z" transform="translate(106.704 102.195)"/><path class="b" d="M117.194,52.245S113.9,3.807,61.572.133-1.316,71.076,11.038,90.777,117.194,52.245,117.194,52.245Z" transform="translate(10.939 -0.002)"/><path class="c" d="M.483,72.264c4.653,14.749,42.343,15.974,84.141,2.721s71.922-35.92,67.242-50.67S109.5,8.342,67.7,21.594-4.2,57.569.483,72.264Z" transform="translate(-0.004 21.342)"/><path class="c" d="M86.375,294.843,65.367,315.035,44.06,293.945,61.666,270.08Z" transform="translate(75.828 464.868)"/><path class="d" d="M86.891,300.005A193.937,193.937,0,0,0,99.6,327.217a14.668,14.668,0,0,1,2.476,9.878,6.15,6.15,0,0,1-9.715,3.837l-51.7-38.1c-5.442-4.109-6.123-7.647-.68-11.837S51.9,278.4,56.74,277.936C67.08,276.766,76.958,277.881,86.891,300.005Z" transform="translate(62.332 477.857)"/><path class="c" d="M157.837,280.974l-3.619,28.9-29.825-2.939L123.06,277.3Z" transform="translate(211.806 477.295)"/><path class="d" d="M163.241,290.78a194.273,194.273,0,0,0,26.968,13.035,14.777,14.777,0,0,1,8.164,6.123,6.123,6.123,0,0,1-5.143,9.089l-64.112,2.884c-6.858.3-9.579-2.041-7.973-8.735s1.306-17.307,4.789-20.736C133.226,285.2,141.607,279.841,163.241,290.78Z" transform="translate(207.736 489.776)"/><path class="e" d="M306.208,198.953s16.708,179.6-16.872,256.259H250.994s10.722-178.7-51.7-229.047c0,0-27.212,185.888-123.191,229.047L47.2,433.605S95.339,298.714,78.467,210.464a26.178,26.178,0,0,1,28.383-30.641Z" transform="translate(81.232 309.288)"/><path class="f" d="M219.167,118.146c42.778,56.956,128.2,184.881,133.477,304.779,0,0-75.514-34.179-231.305-22.532,0,0-4.626-157.641-77.338-241.837-45.526-52.6-5.742-89.529,49.635-95.815C142.183,57.244,189.7,79.069,219.167,118.146Z" transform="translate(41.599 106.542)"/><path class="a" d="M61.864,59.49s-22.532,16.844,52.574,90.264S198.062,434.776,300.49,477.445C300.49,477.445,306.014,125.48,61.864,59.49Z" transform="translate(101.019 102.392)"/><path class="a" d="M40.307,70.75s80.032,10.341,98.754,83.46,50.1,144.906,50.18,197.508c0,66.779-42.723,82.045-68.031,96.359,0,0-7.81-206.216-55.432-263.607S9.611,97.826,40.307,70.75Z" transform="translate(38.354 121.773)"/><path class="g" d="M113.25,55.8a21.77,21.77,0,0,1,14.423-19.212c14.069-5.007,28.437,57.935-3.728,56.221a45.69,45.69,0,0,1-9.5,43.948c-2.34,2.721-37.744,47.377-75.433-7.184,0,0,4.381,5.089-10.885,4.735s-23.1-43.676-15.4-48.084,14.531,11.1,14.531,11.1-25.825-39.73,7.7-67.242S111.563,21.892,113.25,55.8Z" transform="translate(16.733 29.235)"/><path class="h" d="M28.87,33.16l3.891,42.887,17.362-5.878Z" transform="translate(49.682 57.071)"/><path class="i" d="M37.054,40.053c1.252,2.912,3.293,4.844,4.517,4.3s1.252-3.32,0-6.232-3.265-4.817-4.517-4.272S35.8,37.141,37.054,40.053Z" transform="translate(62.153 58.097)"/><path class="i" d="M23.894,45.77c1.252,2.885,3.293,4.817,4.517,4.272s1.225-3.32,0-6.232-3.265-4.817-4.517-4.272S22.642,42.859,23.894,45.77Z" transform="translate(39.501 67.891)"/><path class="h" d="M50.553,37.671s4.844-8.626,9.769-9.524,11.4,21.77,5.17,28-8.817,4.218-9.279.327,5.089-8.9,3.32-12.137S49.274,44.828,50.553,37.671Z" transform="translate(86.778 48.397)"/><path class="h" d="M22.861,50.16s-6.395-5.442-9.96-4.082.571,24.491,7.048,27.212,7.347-.218,6.2-3.891-6.667-5.66-6.694-9.334S26.453,55.9,22.861,50.16Z" transform="translate(19.934 78.931)"/><path class="j" d="M35.553,79.922C24.668,77.5,23.471,61.608,34.41,58.805a11.048,11.048,0,0,1,3.864-.3c9.742,1.061,23.375-4.844,28.736-8.545S81.9,63,61.568,74.616C51.554,80.3,42.329,81.419,35.553,79.922Z" transform="translate(46.074 85.089)"/><path class="i" d="M32.063,56.582h0A20.545,20.545,0,1,1,50.785,68.99,20.545,20.545,0,0,1,32.063,56.582ZM43.792,32.09a17.906,17.906,0,0,0-9.307,23.484h0A17.824,17.824,0,1,0,43.792,32.09Z" transform="translate(52.285 48.018)"/><path class="i" d="M28.7,73.769a20.491,20.491,0,1,1,15.7-.245,20.491,20.491,0,0,1-15.7.245Zm.463-35.376A17.851,17.851,0,0,0,19.886,61.85h0A17.8,17.8,0,1,0,36.214,36.9a17.525,17.525,0,0,0-7.048,1.442Z" transform="translate(27.127 58.914)"/><rect class="i" width="17.253" height="2.64" transform="matrix(0.98, -0.197, 0.197, 0.98, 114.495, 80)"/><rect class="i" width="13.28" height="2.64" transform="matrix(0.753, -0.658, 0.658, 0.753, 34.6, 114.586)"/><rect class="i" width="28.981" height="2.64" transform="translate(62.346 93.27) rotate(-23.38)"/><path class="k" d="M147.364,123.457s10.313-16.79-12.654-26.777l7.483,26.777Z" transform="translate(231.858 166.405)"/><path class="c" d="M103.286,37.28s-49.744-2.857-88.658,27.7l-3.048-26.4L43.473,18.721,83.121,16l13.035,2.721,7.13,7.483Z" transform="translate(19.922 27.535)"/><path class="l" d="M130.94,92.381s52.928-.925,25.308,53.581S130.94,92.381,130.94,92.381Z" transform="translate(225.287 159.003)"/><path class="k" d="M149.411,102.68s-11.647,13.443-18.423,21.362,5.143,31.784,29.934,16.083S149.411,102.68,149.411,102.68Z" transform="translate(222.219 176.732)"/><text class="m" transform="translate(381.502 246.565) rotate(-147.15)"><tspan x="0" y="0">09197517 3759231 021 21 A</tspan></text><path class="c" d="M71.09,159.42Z" transform="translate(122.353 274.395)"/><path class="c" d="M70.94,158.09Z" transform="translate(122.095 272.106)"/><path class="c" d="M73.313,140.169l-2.721,1.279-2.177,1.8-.354-.381,1.306-1.388-2.231-.463c-.653,1.606-1.823,2.585-3.483,2.15-2.34-.626-4.027.707-5.96,1.442a14.07,14.07,0,0,1-4.109.626c-1.034,0-.408,3.129-2.721,1.415l.871-1.034-1.823-.6C54.046,140.877,67.952,138.155,73.313,140.169Z" transform="translate(85.897 240.092)"/><path class="c" d="M47.78,146.11c1.769-2.1,1.769-2.1,3.538-1.986l1.469-2.313c.844,3.891-2.449,4.871-4.408,7.511,0-1.551,2.014-2.993-.6-3.266Z" transform="translate(82.231 244.084)"/><path class="c" d="M50.465,143.37c-.218,1.007-1.225,1.687-.408,3.1s-1.66,3.347-3.837,2.721l4.245-5.8Z" transform="translate(79.546 246.769)"/><path class="c" d="M54.008,154.51,49.6,156.088c.163-.49.19-.952.435-1.17a40.166,40.166,0,0,1,7.13-6.368,30.341,30.341,0,0,1,8.028-2.177,11.728,11.728,0,0,0,3.646-.844c2.041-1.333,3.429.272,5.116.626a2.313,2.313,0,0,1,1.361,1.061H73.384c-3.755,0-7.429-.3-10.885,2.367a14.069,14.069,0,0,1-6.177,1.85C54.308,151.761,53.709,152.741,54.008,154.51Z" transform="translate(85.363 249.59)"/><path class="j" d="M275.953,267.074c0,.517-.871,2.395-.49,2.721.98.735,2.912,1.388,3.7.871a6.123,6.123,0,0,0,1.878-2.2ZM194.832,64.7,28.483,360.631a17.906,17.906,0,0,0,6.83,24.491L217.065,487.2a17.879,17.879,0,0,0,24.491-6.857L407.933,184.4a17.906,17.906,0,0,0-6.83-24.491L219.215,57.865a17.906,17.906,0,0,0-24.382,6.83Zm27.212,102.727.381.925-2.721,1.524-2.558,2.313-.463-.435,1.5-1.85-2.721-.272a3.51,3.51,0,0,1-4.109,2.721c-2.721-.571-4.517,1.034-6.694,1.9-1.714.735-3.483,1.143-5.252,1.714l-2.721,1.932v-1.85l-2.367-.653a44.6,44.6,0,0,1,27.675-7.973ZM183.594,189.41l4.653-6.885v-.163h0c.9-1.8,2.041-3.238,4.055-2.721l1.823-3.238a8.517,8.517,0,0,1-5.089,8.926c-.517-.925,2.531-2.966-.844-2.993v.19c-.3,1.061-1.333,1.959-.218,3.429.381.571-.762,2.531-1.551,3.592-.408.49-1.578.408-2.422.571Zm-24.11,90.481c3.32-3.075,5.089-.952,5.823,3.374l-3.347-1.85C160.763,282.613,159.865,281.878,159.484,279.891Zm1.143,4.055,1.225-.844c1.225,1.878,2.449,3.755,3.7,5.606l-.9.653c-1.279-1.769-2.558-3.619-3.919-5.442Zm11.048,4.98c1.415,1.633,2.721,3.238,4.272,4.844l-.871.816-4.463-4.653ZM170.4,297.28c-1.415-1.85-2.558-3.864-3.891-5.905l.871-1.551,2.721.571a3.619,3.619,0,0,0,2.721,4.354h.163a22.283,22.283,0,0,0,4.218.653c2.449.163,4.245.844,3.837,4.272a37.656,37.656,0,0,1-7.211.3c-1.252-.191-2.476-1.687-3.32-2.721Zm9.5,6.259c-1.388-.952-1.034-2.041.6-2.585a4.708,4.708,0,0,0,5.823,3.1,4.817,4.817,0,0,0,1.633-.9l.789,2.5-1.878.136c.68.381,1.252.816,1.9,1.225l1.8,1.034c-.762.191-1.742.735-2.259.435a81.3,81.3,0,0,1-8.409-4.98Zm-10.885,87.325c3.755-5.442,5.252-10.341,5.633-18.913h3.429a73.474,73.474,0,0,1-1.333,10.613A35.376,35.376,0,0,1,166.5,399.626c-10.014,9.143-22.777,8.871-34.424.735s-14.695-21.5-8.164-34.342a42.207,42.207,0,0,1,13.144-15.7l1.932,2.721A36.192,36.192,0,0,0,125.386,371.9a19.511,19.511,0,0,0,11.756,23.457l24.736-41.472,1.306.735a91.981,91.981,0,0,1-5.116,10.558c-1.66,3.538-3.7,7.13-5.579,10.694s-3.81,7.266-5.769,10.885-3.919,6.994-5.851,10.422c8.654,5.851,21.552,2.83,28-6.286Zm51.323-65.854a12.083,12.083,0,0,1-3.238,2.041c-14.15,2.912-28.355,5.715-42.479,8.626a22.839,22.839,0,0,1-2.721.163c.735-1.9,1.388-3.4,1.9-4.953a9.007,9.007,0,0,0-1.034-9.388,8.164,8.164,0,0,0-13.606.544,65.667,65.667,0,0,0-3.946,6.994L189.989,348.6l-2.721,4.871-37.58-21.117c3.4-5.442,6.449-10.885,10.123-15.81a8.654,8.654,0,0,1,10.5-3.157,10.1,10.1,0,0,1,7.238,10.041,62.86,62.86,0,0,1-.9,7.511l43.05-6.749Zm-21.008-18.777c.49,1.2,1.034,2.313,1.469,3.483l-2.449.218-.218.708-2.068-1.8,3.184-2.721h0Zm80.168-56.275,1.442,7.4,5.742,1.361-.272,2.259a18.124,18.124,0,0,1,1.823-.218l-.844,2.531a4.327,4.327,0,0,1,1.9,0c.3.163.408,1.415.19,1.551a7.565,7.565,0,0,1-8.381-2.286s.218-.544.327-.871l-7.837-.544c1.66,1.361,2.912,3.211,4.055,3.129,2.558,0,2.721,1.524,3.674,3.783a18.527,18.527,0,0,1,1.333-2.1c2.531.653-.871,3.429.735,4.735-3.021-.68-3.157,1.415-3.266,3.565l-.68-.381v-1.714l-.571-.327c-.327.572-.9,1.2-.789,1.687.327,1.361,3.674,2.259,5.252,1.551a3.81,3.81,0,0,0,4.98,2.1,3.509,3.509,0,0,0,1.061-.626,41.037,41.037,0,0,1,3.592-2.993,5.663,5.663,0,0,0,.571.571l-.626,3.374h-3.048v.653a5.96,5.96,0,0,1,2.2,0c.6.245,1.333,1.116,1.225,1.551a2.721,2.721,0,0,1-1.524,1.633,24.118,24.118,0,0,1-3.129,0c-.408,0-.816.49-1.252.735l.245,1.007-3.783-1.524c-.571,2.041,2.1,1.66,2.395,3.075l-6.15,2.014-.6-.517-6.558,3.51-.381-2.367a21.766,21.766,0,0,1-3.565,3.347,25.688,25.688,0,0,1-4.708,1.524c-.218-2.123-1.415-2.721-3.129-1.769a54.775,54.775,0,0,0-4.517,3.429c-.844.626-1.742,1.252-2.721,1.932l-.816-1.9c-1.034,1.279-2.1,2.721-3.347,4.082-.816.844-1.687,2.259-3.265.925a1.442,1.442,0,0,0-1.061.517c-1.987,3.51-5.878,4.6-9.007,6.531-.98.571-2.912-.272-4.381-.6s-2.912-.871-2.259,1.823c.163.762-1.279,1.878-1.987,2.721-.218-.191-.408-.408-.626-.626l2.123-1.306-4.463-.789.3-1.959-4.708,3.538.272.544h2.721l.19.463a22.444,22.444,0,0,1-3.184,1.2c-1.606.327-3.293.245-4.844.68a13.034,13.034,0,0,1-6.422-.762c-3.075-.6-4.191-2.721-5.851-4.49a7.7,7.7,0,0,1-.816-2.15c-.272-.163-1.034,0-1.415-.517-4.136-4.191-4.109-4.218-1.225-9.443l.381-.68c3.619-6.667,3.619-6.667,11.239-5.687,3.184.435,6.449.707,9.524,1.306,2.313.49,3.755,0,4.572-2.231a24.058,24.058,0,0,1,1.524-2.721l-20.627-2.313,8.98-17.77-.925-.544a22.726,22.726,0,0,0-1.8,2.2c-2.721,4.653-5.742,9.279-8.463,13.987a2.721,2.721,0,0,1-3.238,1.606c-6.1-.816-12.191-1.524-18.314-2.286a4.6,4.6,0,0,1-4.544-4.626,7.892,7.892,0,0,0-1.034-2.286l2.177-.816c-5.579-1.442-.816-6.313-2.939-8.164a8.164,8.164,0,0,0,1.606-2.721c0-1.279-.571-2.721-2.231-2.123a4.708,4.708,0,0,0-1.769,5.442,3.837,3.837,0,0,1-.762,5.442c4.544.844.735,4.789,2.531,6.8l-1.306-.735c10.259,8.762,16.817,20.382,24.818,30.859h0a14.859,14.859,0,0,0-2.422.354c-1.089.218-2.123.49-3.374.816l-.3,2.041-2.476-1.306h0v-5.089a46.589,46.589,0,0,0-.844-4.626,17.524,17.524,0,0,1-7.211-2.721c-3.129-1.987-4-6.177-8.164-7.075a3.755,3.755,0,0,1-2.395-4.762,4.819,4.819,0,0,1,.408-.844l-3.32-.327v-3.266a4.653,4.653,0,0,0-.136-1.5c-2.068-1.85-.925-4.191-1.17-6.313a16.789,16.789,0,0,0-1.606-4.055l1.959-.844.626-5.442-1.8.571a78.754,78.754,0,0,1,4.082-9.007,23.892,23.892,0,0,1,8.327-8.708,8.491,8.491,0,0,0,2.1-1.578,15.946,15.946,0,0,1,6.912-4.817,33.28,33.28,0,0,0,5.279-3.347c-3.048,2.721-.245,4.191.844,5.823l4-1.034a44.552,44.552,0,0,1-2.721-5.715c-1.388-3.374-2.531-6.885-3.919-10.259s-2.721-5.769-3.919-8.762c-.327-.844.163-2.014,0-3.048a20.926,20.926,0,0,0-.544-3.891,18.53,18.53,0,0,1-1.143-4.272l2.449,3.238L187.7,200.54l-1.252,1.524-.435-.163a9.142,9.142,0,0,1,.435-2.721c.626-1.116,1.551-2.1,2.2-3.211a8.164,8.164,0,0,0,1.714-5.66c-.517-3.238,1.714-5.116,5.17-4.6,0-.408.218-.925,0-1.17-1.442-1.823,0-3.048,1.17-3.7a41.584,41.584,0,0,1,6.368-2.34l-1.088,2.34a2.34,2.34,0,0,0,.381.354,31.082,31.082,0,0,1,2.721-2.476c1.987-1.415,4.136-2.721,6.068-4.055s3.211-1.306,3.783.327a16.328,16.328,0,0,1,3.021-.762c2.123-.136,4.272,0,6.939-.163l-.9-3.946,2.721,1.007,3.919-2.721c1.8,3.32,2.231,3.483,4.653,1.415a13.2,13.2,0,0,1,.218,3.211,18.314,18.314,0,0,1-4.681.789c-.49,0-.952-.9-1.5-1.007a8.463,8.463,0,0,0-2.721,0,1.47,1.47,0,0,0-.19,1.116c.626.789,1.361,1.986,2.15,2.068,1.605.163,3.32-.762,4.49,1.5.245.49,2.912-.3,4.463-.9l-2.721-.98.163-.626,4.925,1.061-19.43,32.383c2.531,2.721,2.966,2.721,4.381-.218a67.149,67.149,0,0,1,4.381-7.973c.6-1.061,1.524-2.395,2.885-.354.381.6,1.687.463,2.449.925q13.416,7.7,26.859,15.538a6.775,6.775,0,0,0,1.633.9c2.721.762,3.973,2.068,2.721,5.143-.381.925.925,2.531,1.5,3.837h0l1.959-.626c-.6-1.089-1.17-2.231-1.987-3.755.354-.19,1.116-.925,1.633-.816A2.394,2.394,0,0,1,270.1,222.8a23.571,23.571,0,0,1,0,3.919l-.6.272a5.143,5.143,0,0,1-.571.245h-.3c-.571,0-1.089,0-1.415-1.089h0a2.721,2.721,0,0,0-.517.925,3.565,3.565,0,0,0,1.225,3.347h0l.844-1.252,3.347,2.367-.163.735-2.15.408-1.85-2.313h0l-1.17,5.17-39.812,6.259c.381-2.449.789-4.463.98-6.449a10.041,10.041,0,0,0-3.81-9.252,9.47,9.47,0,0,0-13.987,1.524,22.691,22.691,0,0,0-2.558,3.456l-6.885,12.273,37.308,21.035,2.721-4.626-10.885-5.987-22.4-12.6c-1.5-.844-1.932-1.687-.925-3.129a61.339,61.339,0,0,1,4.817-6.994,6.721,6.721,0,0,1,8.381-1.252,7.619,7.619,0,0,1,5.252,7.592,68.626,68.626,0,0,1-2.177,9.062,10.147,10.147,0,0,0,2.721-.245c13.933-2.721,27.838-5.606,41.771-8.3a18.341,18.341,0,0,1,5.034.191c.272,0,.6.49.762.816,1.442,3.048,2.721,6.2,4.272,9.252A8.437,8.437,0,0,0,279.3,249.9Zm-84.821,45.771-7.347-10.4.517-.571,12.082,1.5Zm114.619-35.376-11.593-6.5c-.354-.218-.435-.952-.626-1.442.653,0,1.469-.435,1.959-.19,3.157,1.66,6.2,3.483,9.606,5.443l3.51-5.606a6.019,6.019,0,0,0,.952.435c0,2.939-2.395,5.089-3.81,7.919Zm8.354-14.042a7.456,7.456,0,0,1-10.15,2.721l-.3-.163a7.946,7.946,0,0,1,8.164-13.606,7.728,7.728,0,0,1,2.558,10.613l-.218.327Zm-50.561-27.593-.408-5.443a3.81,3.81,0,0,1,1.388,5.225Zm58.4,14.586c-5.96-.626-11.13-1.116-16.6-1.769,1.442-3.075,3.674-1.361,5.443-1.415a57.945,57.945,0,0,1,6.477.626c-1.5-1.987-2.721-3.483-3.837-5.2s-3.429-2.558-1.687-5.443Zm-72.739-47.159c0,.272.163.708.245.708a3.211,3.211,0,0,1,3.157,3.293,2.72,2.72,0,0,1-.163.952c-1.034,3.973,1.932,3.184,3.783,3.837h.218c1.17,2.993,3.157,5.987,3.184,9.007,0,2.313-.653,4.191,1.742,5.442a4.462,4.462,0,0,1,1.116,1.361l-5.442-.925,1.089-1.959-4.381-1.306c.517.517,1.007,1.061,1.959,2.1l-26.478-14.885c3.293-5.905,4.708-13.035,12.191-15.62.571.3,1.225.844,1.959,1.333l-2.286.844c2.231,2.15,3.4,4.408.571,6.5a16.844,16.844,0,0,1,2.885,2.068c2.531,2.721,3.347,2.884,6.177-.163a29.032,29.032,0,0,1-4.436-1.66c-1.361-.762,1.633-3.374-1.959-3.565,4-.708,4-.708,4.735,2.422Zm79.569,33.39c-1.061,2.041-2.259,4-3.456,6.177L316.037,218.5l3.429-6.068c.19-.354.816-.463,1.225-.708,0,.517.463,1.17.272,1.551-.653,1.442-1.551,2.721-2.367,4.218l4.055,2.286,2.259-4.055c.191-.327.844-.381,1.279-.544,0,.463.408,1.034.245,1.388a46.037,46.037,0,0,1-2.286,4.027l4.163,2.34,2.34-4.191c.245-.408.925-.544,1.388-.816,0,.571.435,1.2.245,1.606Zm11.075-19.049c-.816.327-1.714,1.116-2.367.952-2.993-.762-3.946,1.2-5.252,3.211s0,3.048.816,4.463a6.476,6.476,0,0,1,.463,2.476l-.9.245c-2.939-3.783-5.905-7.565-8.762-11.375-.98-1.306-.49-2.34,1.225-2.177,4.9.408,9.742.925,14.559,1.333ZM273.776,165.6a3.51,3.51,0,0,0-2.721,1.143c-1.714,2.721-3.129,5.8-4.708,8.708a2.721,2.721,0,0,0,.408,3.674c3.211,3.7,6.286,7.511,9.415,11.266,2.041,2.476,2.041,2.476-.272,5.66-.571-.68-1.116-1.333-1.606-1.959q-12.518-17.117-25.171-33.961a14.205,14.205,0,0,1-1.225-2.5,13.387,13.387,0,0,1,2.939-.381c5.851.68,11.7,1.333,17.579,2.231a3.565,3.565,0,0,0,4.191-2.041c2.721-4.735,5.442-9.334,8.436-13.96a13.17,13.17,0,0,1,1.524-1.714l1.034.571-9.035,17.742,20.6,2.313c-.9,1.578-1.606,2.721-2.2,3.919a2.531,2.531,0,0,1-3.021,1.415c-5.443-.762-10.722-1.551-16.137-2.123Zm76,23.566a11.811,11.811,0,0,1-2.531,1.469c-1.551.327-3.211.218-4.762.571a13.879,13.879,0,0,0-2.912,1.769c1.932,1.089,3.347,1.8,4.653,2.721.408.245.463,1.089.68,1.66-.544,0-1.225.408-1.606.218l-11.565-6.5c1.66-2.721,2.068-5.932,5.66-6.041a4.082,4.082,0,0,1,4.3,3.919l7.864-.6a2.149,2.149,0,0,0,.163.925Zm-7.538-11.7,6.667,3.755a7.02,7.02,0,0,1,1.878,1.034,12.764,12.764,0,0,1,1.333,2.068,6.258,6.258,0,0,1-2.286-.19c-2.993-1.578-5.905-3.32-9.089-5.116a18.117,18.117,0,0,1-2.041,3.157c-.19.327-.844.381-1.279.571,0-.463-.435-1.034-.272-1.333,1.769-3.265,3.674-6.5,5.742-10.177,1.769,2.721-1.17,3.864-.68,6.232Zm-66.7,92.332c.98.735,2.885,1.388,3.7.871a6.478,6.478,0,0,0,1.85-2.177l-5.143-1.306c0,.463-.844,2.34-.463,2.721Z" transform="translate(44.98 95.635)"/><path class="c" d="M142.275,102.408a18.315,18.315,0,0,0,4.708-.762,15.757,15.757,0,0,0-.245-3.211c-2.422,2.041-2.721,1.823-4.626-1.415l-3.891,2.721L135.5,98.734l.9,3.946c-2.721,0-4.844,0-6.939.163a18.8,18.8,0,0,0-3.021.735c-.571-1.633-1.932-1.687-3.783-.327s-4.082,2.721-6.068,4.082a27.4,27.4,0,0,0-2.721,2.476l-.381-.354,1.089-2.34a41.584,41.584,0,0,0-6.368,2.34c-1.143.653-2.721,1.85-1.17,3.7.19.218,0,.762,0,1.17-3.456-.544-5.687,1.361-5.17,4.6a8.164,8.164,0,0,1-1.714,5.66c-.653,1.116-1.633,2.068-2.2,3.211a9.007,9.007,0,0,0-.435,2.721l.435.136,1.252-1.5,1.088,5.905L97.837,131.8a19.049,19.049,0,0,0,.925,4.245,20.653,20.653,0,0,1,.544,3.864c0,1.034-.408,2.2,0,3.075,1.17,2.966,2.721,5.8,3.919,8.735,1.388,3.4,2.531,6.912,3.919,10.286.708,1.823,1.8,3.619,2.721,5.715l-4,1.007c-1.089-1.633-3.891-2.939-.844-5.8a32.413,32.413,0,0,1-5.279,3.32,16.328,16.328,0,0,0-6.857,4.844,8.164,8.164,0,0,1-2.1,1.606,23.593,23.593,0,0,0-8.3,8.626,78.569,78.569,0,0,0-3.973,8.98l1.769-.571-.626,5.442-1.959.844a16.328,16.328,0,0,1,1.633,4.027c.218,2.15-.925,4.463,1.143,6.313.272.272,0,.98.163,1.524v3.238l3.075.381a3.783,3.783,0,0,0,1.143,5.225,4.026,4.026,0,0,0,.844.408c4.191.9,5.061,5.062,8.164,7.048A17.5,17.5,0,0,0,101.1,226.9c.245,1.5.626,3.048.816,4.626a47.308,47.308,0,0,1,0,5.2h0l2.449,1.2.3-2.041c1.279-.327,2.259-.626,3.4-.844s1.578-.19,2.422-.354h0c-8-10.45-14.559-22.069-24.818-30.832l1.306.735c-1.769-2.014,2.014-5.96-2.531-6.8a3.837,3.837,0,0,0,.762-5.442,4.953,4.953,0,0,1,1.769-5.442,1.8,1.8,0,0,1,2.231,2.1,7.837,7.837,0,0,1-1.606,2.857c2.123,1.878-2.721,6.749,2.939,8.164l-2.177.816a8.164,8.164,0,0,1,1.034,2.259,4.626,4.626,0,0,0,4.408,4.517c6.123.735,12.218,1.47,18.314,2.286a2.721,2.721,0,0,0,3.238-1.606c2.721-4.762,5.442-9.361,8.463-13.987a17.635,17.635,0,0,1,1.8-2.2l.925.517-9.007,17.8,20.654,2.313a26.293,26.293,0,0,0-1.524,2.721c-.816,2.286-2.259,2.721-4.572,2.259-3.075-.626-6.34-.871-9.524-1.306-7.619-1.007-7.619-1.007-11.239,5.66l-.381.707c-2.939,5.2-2.939,5.2,1.225,9.443.381.381,1.116.408,1.415.517.272.789.3,1.687.816,2.15,1.66,1.8,2.721,3.891,5.851,4.49a12.327,12.327,0,0,0,6.422.735c1.551-.435,3.238-.354,4.844-.68a19.567,19.567,0,0,0,3.184-1.2l-.19-.435H131.8l-.272-.517,4.789-3.293-.3,1.959L140.4,237l-2.123,1.306a6.5,6.5,0,0,0,.6.626c.708-.952,2.15-2.068,1.987-2.721-.6-2.721.653-2.2,2.286-1.823s3.374,1.17,4.354.6c3.129-1.932,6.966-3.048,9.007-6.531.163-.327.952-.626,1.061-.517,1.605,1.333,2.449,0,3.293-.925a51.119,51.119,0,0,0,3.347-4.082l.789,1.9,2.721-1.932a54.768,54.768,0,0,1,4.517-3.429c1.742-1.061,2.966-.408,3.157,1.769a25.445,25.445,0,0,0,4.681-1.524,23.183,23.183,0,0,0,3.592-3.347l.381,2.367,6.531-3.51a3.645,3.645,0,0,1,.626.517l6.15-2.014c-.354-1.361-3.021-.98-2.422-3.075l3.783,1.524-.218-1.007c.408-.245.816-.707,1.252-.735a19.664,19.664,0,0,0,3.1,0,2.721,2.721,0,0,0,1.551-1.633,2.528,2.528,0,0,0-1.252-1.551,6.584,6.584,0,0,0-2.2,0V206.6h3.048l.626-3.347a5.685,5.685,0,0,1-.544-.6c-1.225,1.034-2.531,1.9-3.619,2.993a3.837,3.837,0,0,1-5.442-.408,3.51,3.51,0,0,1-.626-1.061c-1.605.707-5.007-.245-5.279-1.551,0-.463.517-1.116.789-1.687l.571.327v1.714l.68.381c0-2.15.245-4.245,3.293-3.565-1.66-1.333,1.742-4.136-.762-4.735-.517.735-.925,1.442-1.306,2.1-1.007-2.259-1.2-3.973-3.674-3.783-1.17,0-2.422-1.8-4.082-3.129l7.864.544c-.19.3-.435.735-.327.871a7.619,7.619,0,0,0,8.354,2.286c.218-.136,0-1.388-.191-1.551a4.3,4.3,0,0,0-1.9,0l.871-2.531-1.85.218.272-2.286-5.742-1.361-1.442-7.4a8.49,8.49,0,0,1-1.987-1.687c-1.469-3.048-2.721-6.177-4.272-9.279-.163-.327-.49-.789-.762-.816a19.513,19.513,0,0,0-5.034-.163q-20.94,4.082-41.771,8.164c-.952.163-1.959.163-2.721.245a65.306,65.306,0,0,0,2.15-9.062c.435-3.783-2.041-6.123-5.252-7.619a6.5,6.5,0,0,0-8.354,1.279,61.008,61.008,0,0,0-4.817,6.966c-1.007,1.47-.571,2.313.925,3.157l22.4,12.572,10.64,5.987-2.721,4.626L111.58,172.425l6.912-12.273a22.533,22.533,0,0,1,2.531-3.456,9.579,9.579,0,0,1,14.014-1.524,10.069,10.069,0,0,1,3.81,9.252c-.19,2.014-.571,4.055-1.007,6.449l39.921-6.259,1.2-5.17a3.51,3.51,0,0,1-1.252-3.374,3.1,3.1,0,0,1,.517-.925c-.544-1.306-1.8-2.885-1.5-3.837,1.252-3.1,0-4.381-2.721-5.143a7.973,7.973,0,0,1-1.633-.9q-13.388-7.783-26.831-15.538c-.789-.435-2.1-.327-2.476-.925-1.361-2.041-2.231-.708-2.721.354-1.551,2.558-2.993,5.279-4.381,7.973s-1.85,2.721-4.408.218l19.43-32.383-4.9-1.061-.163.626,2.721.9c-1.578.68-4.245,1.469-4.463.925-1.17-2.286-2.721-1.333-4.517-1.524-.789,0-1.5-1.279-2.123-2.068a1.415,1.415,0,0,1,.163-1.089,9.307,9.307,0,0,1,2.721,0C141.377,101.51,141.812,102.408,142.275,102.408Zm-11.511,133.15c-.952.218-1.932.925-2.721.762s-1.524-1.143-2.286-1.8l.653-1.143,3.538,1.17v-1.524l1.034.6.871-2.259C134,234.388,133.839,234.769,130.764,235.558Zm16.327-4.953c1.089-1.088-3.211.381-1.225-1.986a16.333,16.333,0,0,0-2.259.653,11.209,11.209,0,0,1-2.259,1.007c.98-1.415.708-3.946,3.184-3.837.49,0,.952,1.361,1.415,2.041,1.2-.408,2.395-.871,3.592-1.252a6.966,6.966,0,0,1,3.4-.463ZM144.37,217c-2.123.735-3.919,1.442-5.769,2.1l-.272-1.034c1.987.49,3.1-3.674,5.905-1.088Zm21.471,3.538c0-.789-.49-1.66-.245-2.34a11.621,11.621,0,0,1,1.9-2.721c.517,2.966,0,4.218-1.8,5.007Zm21.062-22.26c-.408-.245.381-2.177.49-2.721l5.089,1.361a6.422,6.422,0,0,1-2.041,2.231,4.735,4.735,0,0,1-3.755-.952ZM137.132,116.64a91.77,91.77,0,0,0-9.47.327,5.442,5.442,0,0,0-2.721.952c-1.878,1.143-3.592,2.721-5.442,3.538a24.488,24.488,0,0,1-5.279,1.578c-2.2.49-3.157,1.66-2.558,3.864l-4.953,2.2-.408-.49a96.6,96.6,0,0,1,7.157-7.511,59.077,59.077,0,0,1,8.844-4.354,25.009,25.009,0,0,1,9.116-2.721c1.8-.218,3.674,1.279,5.442,2.422Z" transform="translate(133.73 166.99)"/><path class="c" d="M77.242,163.87l1.932,2.721a36.192,36.192,0,0,0-13.606,18.858,19.511,19.511,0,0,0,11.756,23.457l24.736-41.472,1.306.735a91.978,91.978,0,0,1-5.116,10.558c-1.66,3.538-3.7,7.13-5.579,10.694s-3.81,7.266-5.769,10.885-3.919,6.994-5.851,10.422c8.871,5.987,21.77,2.966,28.219-6.15,3.755-5.442,5.252-10.341,5.633-18.913h3.429A73.469,73.469,0,0,1,117,196.28a35.376,35.376,0,0,1-10.2,16.926c-10.014,9.143-22.777,8.871-34.424.735s-14.695-21.5-8.164-34.342A42.207,42.207,0,0,1,77.242,163.87Z" transform="translate(104.69 282.055)"/><path class="c" d="M142.129,162.323a12.381,12.381,0,0,1-3.211,2.041c-14.178,2.912-28.383,5.715-42.506,8.6a22.475,22.475,0,0,1-2.721.19c.735-1.9,1.388-3.429,1.9-4.953a9.007,9.007,0,0,0-1.034-9.388,8.164,8.164,0,0,0-13.606.544,60.738,60.738,0,0,0-3.946,6.994l34.832,19.593-2.721,4.871L71.54,169.7c3.4-5.442,6.449-10.885,10.123-15.81a8.654,8.654,0,0,1,10.5-3.157,10.1,10.1,0,0,1,7.238,10.041,62.87,62.87,0,0,1-.9,7.511l43.05-6.749Z" transform="translate(123.127 258.294)"/><path class="c" d="M142.347,87.19A11.622,11.622,0,0,0,140.8,88.9c-2.721,4.626-5.742,9.225-8.436,13.96a3.538,3.538,0,0,1-4.272,2.041c-5.823-.871-11.674-1.524-17.579-2.231a13.607,13.607,0,0,0-2.939.354,15.1,15.1,0,0,0,1.306,2.558q12.572,16.926,25.2,33.907c.49.653,1.007,1.252,1.606,1.959,2.395-3.157,2.395-3.129.3-5.66-3.157-3.755-6.232-7.565-9.443-11.266a2.884,2.884,0,0,1-.408-3.674c1.633-2.884,2.993-5.905,4.708-8.708A3.538,3.538,0,0,1,133.558,111c5.443.571,10.885,1.333,16.327,2.1a2.422,2.422,0,0,0,3.021-1.415c.626-1.388,1.279-2.286,2.177-3.891l-20.6-2.313,9.035-17.742Zm-19.675,32.138-7.7-10.1.435-.571,12.382,1.551Z" transform="translate(185.144 150.07)"/><path class="c" d="M126.564,129.045l1.932,2.1L102.1,116.31c3.32-5.878,4.735-13.008,12.218-15.62l1.959,1.361-2.286.844c2.2,2.123,3.374,4.408.544,6.5a15.673,15.673,0,0,1,2.912,2.068c2.531,2.721,3.32,2.721,6.177-.19a29.032,29.032,0,0,1-4.436-1.66c-1.388-.762,1.633-3.347-1.959-3.538,4.055-.708,4.055-.708,4.789,2.422,0,.272,0,.708.245.708a3.265,3.265,0,0,1,3.157,3.293,2.722,2.722,0,0,1-.163.952c-1.034,3.973,1.932,3.184,3.755,3.837h.245c1.143,2.993,3.157,6.014,3.184,9.007,0,2.313-.653,4.191,1.742,5.442A4.463,4.463,0,0,1,135.3,133.1l-5.442-.925,1.089-1.959-4.517-1.361,1.633-1.8,3.075,2.068a25.415,25.415,0,0,0-1.2-4.708,15.483,15.483,0,0,0-2.721-3.048l2.259-.163c-1.361-1.225-.381-3.864-3.32-3.674l.925,2.531-4.789,1.089v.816a11.456,11.456,0,0,1,3.157,2.558,14.723,14.723,0,0,1,1.116,4.517Z" transform="translate(175.729 173.307)"/><path class="c" d="M111.8,99.291l-2.721-.272a3.51,3.51,0,0,1-4.109,2.721c-2.721-.571-4.517,1.034-6.694,1.9-1.714.735-3.483,1.143-5.252,1.714L90.3,107.292v-1.85l-2.367-.653a44.792,44.792,0,0,1,27.7-8.164l.381.952-2.721,1.5-2.558,2.313-.49-.408Z" transform="translate(151.339 166.242)"/><path class="c" d="M129.173,125.4a7.647,7.647,0,0,0,2.395,10.5l.272.163a7.456,7.456,0,0,0,10.286-2.395l.163-.272a7.728,7.728,0,0,0-1.986-10.885l-.408-.245a7.62,7.62,0,0,0-10.45,2.558A3.813,3.813,0,0,0,129.173,125.4Zm11.484,6.64a5.443,5.443,0,0,1-7.456,2.231h-.163a5.689,5.689,0,1,1,5.742-9.824h0a5.442,5.442,0,0,1,1.932,7.483h0Z" transform="translate(220.333 208.551)"/><path class="c" d="M148.3,107.039a4.082,4.082,0,0,0-4.272-3.946c-3.619,0-4.027,3.483-5.687,6.068l11.565,6.5a2.337,2.337,0,0,0,1.606-.218c-.218-.571-.3-1.361-.68-1.66-1.252-.844-2.721-1.524-4.653-2.721a11.92,11.92,0,0,1,2.912-1.769c1.551-.354,3.211-.245,4.762-.6a10.883,10.883,0,0,0,2.531-1.469,2.566,2.566,0,0,0-.327-.816Zm-3.32,3.129-3.891-2.2c.762-1.8,1.66-3.429,3.7-2.395s1.5,2.721.3,4.6Z" transform="translate(238.106 177.435)"/><path class="c" d="M138.353,108c-1.66,0-2.2.844-1.225,2.15,2.857,3.837,5.823,7.592,8.735,11.375l.925-.245c-.163-.816,0-1.823-.463-2.449-.925-1.415-2.041-2.449-.816-4.463s2.231-4,5.252-3.238c.653.163,1.551-.6,2.34-.952l-.245-.871C148.095,108.816,143.251,108.3,138.353,108Zm4.789,6.449-3.293-4.136c2.014.163,3.429.245,5.442.435Z" transform="translate(235.182 185.889)"/><path class="c" d="M97.969,141.4l-5.252,9.361-7.347-10.4.517-.571Z" transform="translate(146.932 240.607)"/><path class="c" d="M77.74,143.139l.816-1.469,2.721.571A3.592,3.592,0,0,0,84,146.568h.163a21.766,21.766,0,0,0,4.218.653c2.422.19,4.245.844,3.81,4.272a37.661,37.661,0,0,1-7.211.3c-1.225-.191-2.422-1.66-3.32-2.721A64,64,0,0,1,77.74,143.139Z" transform="translate(133.799 243.843)"/><path class="c" d="M132.68,119.736l3.4-6.068c.218-.354.816-.49,1.225-.708,0,.517.463,1.17.272,1.551-.653,1.415-1.524,2.721-2.367,4.218l4.055,2.259,2.286-4.027c.163-.327.816-.381,1.252-.544,0,.435.408,1.007.245,1.361a46.435,46.435,0,0,1-2.286,4.055l4.164,2.34,2.34-4.191c.245-.435.925-.571,1.388-.844,0,.544.381,1.17.19,1.578-1.034,2.041-2.259,4-3.456,6.177Z" transform="translate(228.364 194.426)"/><path class="c" d="M146.64,129.228c-5.96-.626-11.13-1.116-16.6-1.769,1.442-3.075,3.674-1.361,5.443-1.415a57.937,57.937,0,0,1,6.477.626c-1.5-1.987-2.721-3.483-3.837-5.2s-3.429-2.558-1.687-5.442Z" transform="translate(223.82 199.711)"/><path class="c" d="M144,105.823a18.121,18.121,0,0,1-2.041,3.157c-.218.354-.844.408-1.279.6,0-.463-.435-1.034-.272-1.333,1.769-3.293,3.674-6.5,5.742-10.2,1.932,2.721-1.007,3.864-.517,6.232l6.667,3.755a7.022,7.022,0,0,1,1.878,1.034,11.674,11.674,0,0,1,1.333,2.068,6.259,6.259,0,0,1-2.286-.191C150.254,109.388,147.261,107.673,144,105.823Z" transform="translate(241.594 168.745)"/><path class="c" d="M137.918,136.07l-11.592-6.5c-.354-.218-.435-.952-.626-1.442.653,0,1.469-.435,1.959-.19,3.157,1.66,6.2,3.483,9.606,5.443l3.51-5.606.952.435C141.619,131.117,139.333,133.24,137.918,136.07Z" transform="translate(216.35 219.918)"/><path class="c" d="M93.935,152.956c-.789.163-1.769.708-2.313.408a90.021,90.021,0,0,1-8.436-4.953c-1.361-.952-1.034-2.041.626-2.721a4.681,4.681,0,0,0,5.769,3.211,5.441,5.441,0,0,0,1.606-.871l.789,2.5-1.878.136,3.783,2.422Z" transform="translate(141.714 250.763)"/><path class="c" d="M85.742,105.94c.925-1.823,2.041-3.347,4.055-2.721l1.823-3.238a8.545,8.545,0,0,1-5.034,8.926c-.544-.952,2.531-3.021-.925-3.021Z" transform="translate(147.431 172.085)"/><path class="c" d="M81,142.309l-3.347-1.85c-1.252,1.089-2.177.463-2.531-1.551C78.522,135.86,80.236,137.982,81,142.309Z" transform="translate(129.29 236.618)"/><path class="c" d="M88.668,102.15c-.245,1.143-1.469,2.041-.327,3.592.408.544-.735,2.531-1.551,3.565-.381.517-1.578.408-2.395.571l-.435-.708,4.708-6.966Z" transform="translate(144.505 175.82)"/><path class="c" d="M114.869,121.554l2.041-.571L114.9,117.2c.381-.19,1.116-.925,1.633-.789a2.286,2.286,0,0,1,1.143,1.66,23.571,23.571,0,0,1,0,3.919c-1.143.435-2.313,1.5-2.912-.544Z" transform="translate(197.519 200.337)"/><path class="c" d="M80.4,141.32l4.272,4.844-.98.844-4.463-4.653Z" transform="translate(136.364 243.241)"/><path class="c" d="M91.833,147.729l1.469,3.483-2.449.218-.218.707-2.1-1.8L92,147.62Z" transform="translate(152.389 254.085)"/><path class="c" d="M76.825,139.17,80.5,144.8l-.871.653L75.6,140.014Z" transform="translate(130.116 239.54)"/><path class="c" d="M114.49,113.55a3.782,3.782,0,0,1,1.415,5.225h-.9Z" transform="translate(197.055 195.442)"/><path class="c" d="M115.107,120.662l.816-1.252,3.347,2.34-.163.735-2.123.408-1.9-2.34Z" transform="translate(198.07 205.528)"/><path class="j" d="M93.628,116.141l-4.953,2.231-.435-.49a102.3,102.3,0,0,1,7.157-7.538,65.111,65.111,0,0,1,8.871-4.354,25.96,25.96,0,0,1,9.116-2.721,10.422,10.422,0,0,1,5.442,2.476,84.516,84.516,0,0,0-9.443.354,5.442,5.442,0,0,0-2.395.98c-1.878,1.143-3.592,2.721-5.442,3.538a24.492,24.492,0,0,1-5.279,1.578C93.955,112.876,93.029,114.046,93.628,116.141Z" transform="translate(151.872 177.748)"/><path class="j" d="M96.062,148.376l3.538,1.17v-1.524l1.061.6.844-2.231c2.15,2.912,1.959,3.347-1.17,4.109-.952.218-1.932.925-2.721.762s-1.551-1.143-2.313-1.8Z" transform="translate(164.024 251.967)"/><path class="j" d="M103.185,146.456l3.592-1.279a7.293,7.293,0,0,1,3.4-.463l-5.878,3.837c1.089-1.088-3.211.381-1.225-1.986Z" transform="translate(176.494 249.017)"/><path class="j" d="M105.637,146.709h0a16.08,16.08,0,0,0-2.231.653,12.165,12.165,0,0,1-2.286,1.007c1.007-1.415.708-3.946,3.211-3.837C104.739,144.7,105.093,145.974,105.637,146.709Z" transform="translate(174.042 248.764)"/><path class="j" d="M111.878,140.61c.68,2.966.218,4.218-1.633,5.007a5.986,5.986,0,0,1-.272-2.34A12.491,12.491,0,0,1,111.878,140.61Z" transform="translate(189.245 242.019)"/><path class="j" d="M100,142.727c2.123.517,3.238-3.592,6.041-1.061l-5.769,2.1Z" transform="translate(172.114 242.406)"/><path class="j" d="M110.725,95.12l12.354,1.551-5.116,9.007L110.29,95.61Z" transform="translate(189.826 163.719)"/><path class="j" d="M113.706,118.192a14.777,14.777,0,0,0-1.007-4.3,11.511,11.511,0,0,0-3.129-2.721v-.816l4.789-1.089-.9-2.259c2.912-.218,2.014,2.476,3.32,3.646l-2.259.19a16.137,16.137,0,0,1,2.721,3.021,24.245,24.245,0,0,1,1.225,4.735l-3.075-2.068-1.633,1.8Z" transform="translate(188.586 184.16)"/><path class="j" d="M137.4,122.819a5.66,5.66,0,1,1-4.317-.6A5.66,5.66,0,0,1,137.4,122.819Z" transform="translate(221.79 210.039)"/><path class="j" d="M143.281,108.8l-3.891-2.2c.762-1.8,1.66-3.429,3.7-2.395S144.479,106.925,143.281,108.8Z" transform="translate(239.914 178.8)"/><path class="j" d="M143.181,109.275l-2.068,3.7-3.293-4.136Z" transform="translate(237.211 187.335)"/><path class="a" d="M77.262,174.559l-4.517-20.6C70.024,145.8,66.3,143.319,59.9,135.073,48.635,120.433,54.867,73.9,54.867,73.9,21.695,111.045-5.055,186.4,17.15,244.495c37.744,99.108,151.628,17.062,151.628,17.062l-20.654-46.805S60.69,243.678,77.262,174.559Z" transform="translate(15.495 127.195)"/><path class="g" d="M62.59,141.953s21.09-17.416,33.961-16.926S82.945,139.1,82.945,139.1s26.913-5.443,43.023-2.2,14.586,14.776-15.293,25.416S75.3,170.471,75.3,170.471Z" transform="translate(107.722 215.178)"/></g></g></svg>